<svg width="371" height="184" viewBox="0 0 371 184" fill="none" xmlns="http://www.w3.org/2000/svg">
<g filter="url(#filter0_d_462_4190)">
<rect x="60" y="56" width="301" height="64" rx="4" fill="white" shape-rendering="crispEdges"/>
<rect x="76" y="68" width="213" height="40" rx="4" fill="#F3F5F8"/>
<path d="M96.4219 94L95.2891 90.7734H90.8047L89.6719 94H88.1953L92.3516 82.7266H93.7422L97.8984 94H96.4219ZM93.0234 84.4375L91.2188 89.5781H94.875L93.0703 84.4375H93.0234ZM101.852 90.9062H101.82L99.8594 94H98.3516L101.117 89.9375L98.3984 85.875H99.9141L101.867 88.9219H101.898L103.828 85.875H105.344L102.602 89.8828L105.305 94H103.797L101.852 90.9062ZM106.93 83.9141H108.289V85.875H109.867V86.9922H108.289V91.8203C108.289 92.1901 108.37 92.4635 108.531 92.6406C108.693 92.8125 108.948 92.8984 109.297 92.8984C109.516 92.8984 109.703 92.8854 109.859 92.8594V94C109.682 94.0417 109.396 94.0625 109 94.0625C108.255 94.0625 107.724 93.8958 107.406 93.5625C107.089 93.2292 106.93 92.6719 106.93 91.8906V86.9922H105.719V85.875H106.93V83.9141ZM113.844 92.9844C114.484 92.9844 115.021 92.7865 115.453 92.3906C115.891 91.9896 116.109 91.4974 116.109 90.9141V90.25L113.938 90.3828C113.391 90.4193 112.966 90.5521 112.664 90.7812C112.367 91.0104 112.219 91.3177 112.219 91.7031C112.219 92.0885 112.367 92.3984 112.664 92.6328C112.961 92.8672 113.354 92.9844 113.844 92.9844ZM113.539 94.1406C112.732 94.1406 112.078 93.9167 111.578 93.4688C111.083 93.0208 110.836 92.4323 110.836 91.7031C110.836 91.0052 111.091 90.4479 111.602 90.0312C112.117 89.6146 112.844 89.3802 113.781 89.3281L116.109 89.1953V88.5156C116.109 88.0208 115.953 87.6328 115.641 87.3516C115.328 87.0703 114.891 86.9297 114.328 86.9297C113.812 86.9297 113.393 87.0443 113.07 87.2734C112.747 87.4974 112.542 87.8125 112.453 88.2188H111.141C111.188 87.4948 111.5 86.901 112.078 86.4375C112.661 85.9688 113.422 85.7344 114.359 85.7344C115.312 85.7344 116.068 85.974 116.625 86.4531C117.188 86.9323 117.469 87.5755 117.469 88.3828V94H116.18V92.6016H116.148C115.904 93.0651 115.544 93.4375 115.07 93.7188C114.596 94 114.086 94.1406 113.539 94.1406ZM119.195 94V85.875H120.477V87.2031H120.508C120.643 86.75 120.885 86.3932 121.234 86.1328C121.589 85.8672 122.003 85.7344 122.477 85.7344C122.586 85.7344 122.768 85.7526 123.023 85.7891V87.1094C122.878 87.0573 122.635 87.0312 122.297 87.0312C121.771 87.0312 121.349 87.2057 121.031 87.5547C120.714 87.9036 120.555 88.3646 120.555 88.9375V94H119.195Z" fill="#959FA5"/>
<rect x="297" y="68" width="48" height="40" rx="4" fill="#44BC82"/>
<path fill-rule="evenodd" clip-rule="evenodd" d="M324.697 82.6215C322.191 80.1154 318.128 80.1154 315.622 82.6215C313.115 85.1276 313.115 89.1908 315.622 91.6969C318.104 94.1798 322.116 94.2028 324.627 91.766C324.647 91.7406 324.669 91.7161 324.693 91.6925C324.716 91.669 324.741 91.6471 324.766 91.6268C327.203 89.1156 327.18 85.1044 324.697 82.6215ZM326.512 92.2803C329.101 89.0761 328.907 84.3681 325.929 81.3898C322.742 78.2034 317.576 78.2034 314.39 81.3898C311.203 84.5762 311.203 89.7423 314.39 92.9287C317.368 95.907 322.076 96.1015 325.28 93.512L328.513 96.7449C328.853 97.085 329.405 97.085 329.745 96.7449C330.085 96.4048 330.085 95.8533 329.745 95.5132L326.512 92.2803Z" fill="white"/>
</g>
<defs>
<filter id="filter0_d_462_4190" x="0" y="0" width="421" height="184" filterUnits="userSpaceOnUse" color-interpolation-filters="sRGB">
<feFlood flood-opacity="0" result="BackgroundImageFix"/>
<feColorMatrix in="SourceAlpha" type="matrix" values="0 0 0 0 0 0 0 0 0 0 0 0 0 0 0 0 0 0 127 0" result="hardAlpha"/>
<feOffset dy="4"/>
<feGaussianBlur stdDeviation="30"/>
<feComposite in2="hardAlpha" operator="out"/>
<feColorMatrix type="matrix" values="0 0 0 0 0.211765 0 0 0 0 0.25098 0 0 0 0 0.878431 0 0 0 0.08 0"/>
<feBlend mode="normal" in2="BackgroundImageFix" result="effect1_dropShadow_462_4190"/>
<feBlend mode="normal" in="SourceGraphic" in2="effect1_dropShadow_462_4190" result="shape"/>
</filter>
</defs>
</svg>
