<svg width="434" height="551" viewBox="0 0 434 551" fill="none" xmlns="http://www.w3.org/2000/svg">
<g filter="url(#filter0_d_462_4135)">
<rect x="60" y="56" width="314" height="431" rx="8" fill="white" shape-rendering="crispEdges"/>
<g filter="url(#filter1_d_462_4135)">
<rect x="80" y="96" width="52" height="52" rx="12" fill="#FF3683" shape-rendering="crispEdges"/>
<path d="M105.999 130.86C106.543 130.86 106.983 130.419 106.983 129.875C106.983 129.332 106.543 128.891 105.999 128.891C105.455 128.891 105.015 129.332 105.015 129.875C105.015 130.419 105.455 130.86 105.999 130.86Z" fill="white"/>
<path d="M102.163 126.163C103.196 125.176 104.57 124.625 105.999 124.625C107.428 124.625 108.802 125.176 109.835 126.163" stroke="white" stroke-width="1.5" stroke-linecap="round" stroke-linejoin="round"/>
<path d="M98.4507 122.451C100.469 120.479 103.178 119.375 105.999 119.375C108.82 119.375 111.529 120.479 113.547 122.451" stroke="white" stroke-width="1.5" stroke-linecap="round" stroke-linejoin="round"/>
<path d="M94.7415 118.739C97.7429 115.782 101.787 114.125 105.999 114.125C110.212 114.125 114.256 115.782 117.257 118.739" stroke="white" stroke-width="1.5" stroke-linecap="round" stroke-linejoin="round"/>
<rect x="80.5" y="96.5" width="51" height="51" rx="11.5" stroke="#F9FAFB" shape-rendering="crispEdges"/>
</g>
<path d="M145.906 101.523C146.43 101.523 146.844 101.102 146.844 100.594C146.844 100.094 146.43 99.6797 145.906 99.6797C145.391 99.6797 144.977 100.094 144.977 100.594C144.977 101.102 145.391 101.523 145.906 101.523ZM145.039 114H146.789V102.727H145.039V114ZM148.664 114H150.352V109.211C150.352 107.93 151.117 107.07 152.305 107.07C153.477 107.07 154.055 107.766 154.055 109V114H155.75V108.68C155.75 106.789 154.711 105.625 152.906 105.625C151.664 105.625 150.82 106.188 150.391 107.023H150.352V105.781H148.664V114ZM160.266 114.164C160.609 114.164 160.93 114.125 161.125 114.094V112.789C161 112.805 160.852 112.82 160.672 112.82C159.961 112.82 159.586 112.57 159.586 111.734V107.125H161.125V105.781H159.586V103.641H157.859V105.781H156.68V107.125H157.859V111.836C157.859 113.477 158.641 114.164 160.266 114.164ZM165.828 114.164C167.82 114.164 169.086 112.977 169.352 111.672L169.367 111.586H167.766L167.742 111.648C167.531 112.266 166.867 112.781 165.867 112.781C164.523 112.781 163.672 111.875 163.641 110.32H169.461V109.75C169.461 107.281 168.047 105.625 165.742 105.625C163.438 105.625 161.953 107.344 161.953 109.914V109.922C161.953 112.516 163.414 114.164 165.828 114.164ZM165.75 107.008C166.852 107.008 167.648 107.703 167.789 109.125H163.664C163.812 107.75 164.656 107.008 165.75 107.008ZM170.773 114H172.461V109.102C172.461 107.875 173.133 107.164 174.219 107.164C174.547 107.164 174.844 107.203 174.977 107.258V105.688C174.844 105.664 174.633 105.625 174.391 105.625C173.453 105.625 172.766 106.227 172.5 107.188H172.461V105.781H170.773V114ZM176.023 114H177.711V109.211C177.711 107.93 178.477 107.07 179.664 107.07C180.836 107.07 181.414 107.766 181.414 109V114H183.109V108.68C183.109 106.789 182.07 105.625 180.266 105.625C179.023 105.625 178.18 106.188 177.75 107.023H177.711V105.781H176.023V114ZM188.25 114.164C190.242 114.164 191.508 112.977 191.773 111.672L191.789 111.586H190.188L190.164 111.648C189.953 112.266 189.289 112.781 188.289 112.781C186.945 112.781 186.094 111.875 186.062 110.32H191.883V109.75C191.883 107.281 190.469 105.625 188.164 105.625C185.859 105.625 184.375 107.344 184.375 109.914V109.922C184.375 112.516 185.836 114.164 188.25 114.164ZM188.172 107.008C189.273 107.008 190.07 107.703 190.211 109.125H186.086C186.234 107.75 187.078 107.008 188.172 107.008ZM196.078 114.164C196.422 114.164 196.742 114.125 196.938 114.094V112.789C196.812 112.805 196.664 112.82 196.484 112.82C195.773 112.82 195.398 112.57 195.398 111.734V107.125H196.938V105.781H195.398V103.641H193.672V105.781H192.492V107.125H193.672V111.836C193.672 113.477 194.453 114.164 196.078 114.164Z" fill="#849097"/>
<path d="M145.798 130.346C146.614 129.43 147.721 128.972 149.12 128.972C150.519 128.972 151.627 129.43 152.442 130.346C153.258 131.262 153.666 132.504 153.666 134.071C153.666 135.639 153.258 136.881 152.442 137.797C151.627 138.708 150.519 139.164 149.12 139.164C147.721 139.164 146.614 138.708 145.798 137.797C144.982 136.881 144.574 135.639 144.574 134.071C144.574 132.504 144.982 131.262 145.798 130.346ZM151.513 131.18C150.925 130.464 150.127 130.106 149.12 130.106C148.113 130.106 147.313 130.464 146.721 131.18C146.133 131.891 145.839 132.854 145.839 134.071C145.839 135.284 146.133 136.247 146.721 136.963C147.313 137.674 148.113 138.029 149.12 138.029C150.127 138.029 150.925 137.674 151.513 136.963C152.105 136.247 152.401 135.284 152.401 134.071C152.401 132.854 152.105 131.891 151.513 131.18ZM148.375 127.816C148.229 127.962 148.054 128.035 147.849 128.035C147.644 128.035 147.466 127.962 147.315 127.816C147.17 127.671 147.097 127.493 147.097 127.283C147.097 127.074 147.17 126.896 147.315 126.75C147.466 126.604 147.644 126.531 147.849 126.531C148.054 126.531 148.229 126.604 148.375 126.75C148.525 126.896 148.601 127.074 148.601 127.283C148.601 127.493 148.525 127.671 148.375 127.816ZM150.918 127.816C150.772 127.962 150.597 128.035 150.392 128.035C150.187 128.035 150.009 127.962 149.858 127.816C149.713 127.671 149.64 127.493 149.64 127.283C149.64 127.074 149.713 126.896 149.858 126.75C150.009 126.604 150.187 126.531 150.392 126.531C150.597 126.531 150.772 126.604 150.918 126.75C151.068 126.896 151.144 127.074 151.144 127.283C151.144 127.493 151.068 127.671 150.918 127.816ZM157.706 139.123C156.795 139.123 156.059 138.788 155.498 138.118C154.942 137.448 154.664 136.557 154.664 135.445C154.664 134.338 154.942 133.449 155.498 132.779C156.054 132.105 156.781 131.768 157.679 131.768C158.18 131.768 158.629 131.882 159.025 132.109C159.422 132.337 159.727 132.649 159.941 133.046H159.969V129.136H161.158V139H160.023V137.797H160.003C159.771 138.212 159.456 138.537 159.06 138.774C158.663 139.007 158.212 139.123 157.706 139.123ZM157.932 132.813C157.303 132.813 156.804 133.053 156.435 133.531C156.065 134.005 155.881 134.643 155.881 135.445C155.881 136.252 156.065 136.892 156.435 137.366C156.804 137.84 157.303 138.077 157.932 138.077C158.547 138.077 159.041 137.838 159.415 137.359C159.789 136.876 159.976 136.238 159.976 135.445C159.976 134.652 159.786 134.017 159.408 133.538C159.035 133.055 158.542 132.813 157.932 132.813ZM165.595 138.098C166.155 138.098 166.616 137.911 166.976 137.537C167.34 137.163 167.543 136.664 167.584 136.04H163.715C163.724 136.66 163.899 137.159 164.241 137.537C164.588 137.911 165.039 138.098 165.595 138.098ZM163.742 133.743H162.573C162.746 133.142 163.097 132.663 163.626 132.308C164.155 131.948 164.799 131.768 165.561 131.768C166.559 131.768 167.347 132.098 167.926 132.759C168.509 133.42 168.801 134.313 168.801 135.438C168.801 136.56 168.509 137.455 167.926 138.125C167.342 138.79 166.561 139.123 165.581 139.123C164.619 139.123 163.863 138.804 163.312 138.166C162.76 137.528 162.484 136.658 162.484 135.555L162.505 135.11H167.584V135.056C167.584 134.368 167.397 133.818 167.023 133.408C166.65 132.998 166.162 132.793 165.561 132.793C164.672 132.793 164.066 133.11 163.742 133.743ZM170.065 139V131.891H171.187V133.025H171.214C171.419 132.629 171.713 132.321 172.096 132.103C172.479 131.879 172.937 131.768 173.47 131.768C174.244 131.768 174.848 132.002 175.281 132.472C175.714 132.937 175.931 133.575 175.931 134.386V139H174.741V134.598C174.741 134.019 174.604 133.579 174.331 133.278C174.058 132.973 173.65 132.82 173.107 132.82C172.547 132.82 172.098 133.003 171.761 133.367C171.424 133.732 171.255 134.215 171.255 134.816V139H170.065ZM177.51 139V131.891H178.699V139H177.51ZM178.104 130.694C177.904 130.694 177.731 130.621 177.585 130.476C177.439 130.33 177.366 130.157 177.366 129.956C177.366 129.751 177.439 129.578 177.585 129.437C177.731 129.291 177.904 129.218 178.104 129.218C178.31 129.218 178.485 129.291 178.631 129.437C178.777 129.578 178.85 129.751 178.85 129.956C178.85 130.157 178.777 130.33 178.631 130.476C178.485 130.621 178.31 130.694 178.104 130.694ZM180.367 139V129.136H181.557V139H180.367ZM183.225 139V131.891H184.414V139H183.225ZM183.819 130.694C183.619 130.694 183.446 130.621 183.3 130.476C183.154 130.33 183.081 130.157 183.081 129.956C183.081 129.751 183.154 129.578 183.3 129.437C183.446 129.291 183.619 129.218 183.819 129.218C184.024 129.218 184.2 129.291 184.346 129.437C184.492 129.578 184.564 129.751 184.564 129.956C184.564 130.157 184.492 130.33 184.346 130.476C184.2 130.621 184.024 130.694 183.819 130.694ZM189.555 139.123C189.044 139.123 188.589 139.007 188.188 138.774C187.791 138.542 187.477 138.216 187.244 137.797H187.217V139H186.082V129.136H187.271V133.08H187.299C187.522 132.67 187.832 132.349 188.229 132.116C188.63 131.884 189.078 131.768 189.575 131.768C190.473 131.768 191.198 132.103 191.749 132.772C192.3 133.442 192.576 134.333 192.576 135.445C192.576 136.562 192.3 137.455 191.749 138.125C191.198 138.79 190.466 139.123 189.555 139.123ZM189.322 132.813C188.716 132.813 188.222 133.057 187.839 133.545C187.456 134.028 187.265 134.661 187.265 135.445C187.265 136.234 187.456 136.869 187.839 137.353C188.222 137.836 188.716 138.077 189.322 138.077C189.951 138.077 190.448 137.842 190.812 137.373C191.177 136.899 191.359 136.257 191.359 135.445C191.359 134.639 191.177 133.998 190.812 133.524C190.448 133.05 189.951 132.813 189.322 132.813Z" fill="#586268"/>
<rect x="199" y="126" width="16" height="16" rx="8" fill="#00B374"/>
<path fill-rule="evenodd" clip-rule="evenodd" d="M211.265 130.985C211.412 131.131 211.412 131.369 211.265 131.515L205.765 137.015C205.619 137.162 205.381 137.162 205.235 137.015L202.735 134.515C202.588 134.369 202.588 134.131 202.735 133.985C202.881 133.838 203.119 133.838 203.265 133.985L205.5 136.22L210.735 130.985C210.881 130.838 211.119 130.838 211.265 130.985Z" fill="white"/>
<rect x="80" y="168" width="274" height="1" fill="#E8ECF1"/>
<g filter="url(#filter2_d_462_4135)">
<rect x="80" y="189" width="52" height="52" rx="12" fill="#FE9001" shape-rendering="crispEdges"/>
<path fill-rule="evenodd" clip-rule="evenodd" d="M105.498 203.783C105.799 203.572 106.2 203.572 106.502 203.783L115.825 210.31C115.831 210.314 115.838 210.318 115.844 210.323L118.168 211.95C118.564 212.227 118.661 212.773 118.383 213.168C118.106 213.564 117.561 213.661 117.165 213.383L116.208 212.714V225.5C116.208 225.983 115.817 226.375 115.333 226.375H96.6667C96.1834 226.375 95.7917 225.983 95.7917 225.5V212.714L94.8351 213.383C94.4392 213.661 93.8936 213.564 93.6165 213.168C93.3394 212.773 93.4357 212.227 93.8315 211.95L96.1561 210.323C96.1623 210.318 96.1686 210.314 96.1749 210.309L105.498 203.783ZM97.5417 211.489V224.625H101.625V218.5C101.625 216.728 103.061 215.292 104.833 215.292H107.167C108.939 215.292 110.375 216.728 110.375 218.5V224.625H114.458V211.489L106 205.568L97.5417 211.489ZM108.625 224.625V218.5C108.625 217.694 107.973 217.042 107.167 217.042H104.833C104.027 217.042 103.375 217.694 103.375 218.5V224.625H108.625Z" fill="white"/>
<rect x="80.5" y="189.5" width="51" height="51" rx="11.5" stroke="#F9FAFB" shape-rendering="crispEdges"/>
</g>
<path d="M145.039 207H146.789V203.234L147.938 201.906L151.664 207H153.828L149.188 200.711L153.461 195.727H151.383L146.836 201.125H146.789V195.727H145.039V207ZM157.789 207.164C160.141 207.164 161.688 205.539 161.688 202.891V202.875C161.688 200.242 160.125 198.625 157.781 198.625C155.445 198.625 153.891 200.25 153.891 202.875V202.891C153.891 205.531 155.43 207.164 157.789 207.164ZM157.797 205.75C156.477 205.75 155.617 204.711 155.617 202.891V202.875C155.617 201.078 156.484 200.039 157.781 200.039C159.102 200.039 159.961 201.078 159.961 202.875V202.891C159.961 204.703 159.117 205.75 157.797 205.75ZM162.992 207H164.68V201.922C164.68 200.859 165.391 200.07 166.391 200.07C167.344 200.07 167.945 200.68 167.945 201.633V207H169.602V201.859C169.602 200.82 170.297 200.07 171.297 200.07C172.297 200.07 172.867 200.688 172.867 201.758V207H174.562V201.352C174.562 199.703 173.5 198.625 171.875 198.625C170.703 198.625 169.734 199.242 169.312 200.242H169.273C168.945 199.211 168.117 198.625 166.984 198.625C165.906 198.625 165.07 199.195 164.719 200.055H164.68V198.781H162.992V207ZM178.992 207.164C180.242 207.164 181.078 206.594 181.508 205.766H181.547V207H183.242V198.781H181.547V203.578C181.547 204.859 180.781 205.711 179.594 205.711C178.422 205.711 177.844 205.023 177.844 203.781V198.781H176.156V204.109C176.156 206 177.188 207.164 178.992 207.164ZM184.914 207H186.602V202.211C186.602 200.93 187.367 200.07 188.555 200.07C189.727 200.07 190.305 200.766 190.305 202V207H192V201.68C192 199.789 190.961 198.625 189.156 198.625C187.914 198.625 187.07 199.188 186.641 200.023H186.602V198.781H184.914V207ZM196.047 207.148C197.133 207.148 198.086 206.586 198.562 205.703H198.594V207H200.289V201.336C200.289 199.688 199.016 198.625 197.008 198.625C194.984 198.625 193.758 199.711 193.641 201.125L193.633 201.211H195.227L195.242 201.141C195.383 200.484 195.984 200.023 196.961 200.023C198.008 200.023 198.594 200.57 198.594 201.477V202.094L196.359 202.227C194.414 202.344 193.305 203.219 193.305 204.648V204.664C193.305 206.141 194.406 207.148 196.047 207.148ZM195.008 204.625V204.609C195.008 203.914 195.57 203.469 196.586 203.406L198.594 203.281V203.922C198.594 204.992 197.695 205.797 196.508 205.797C195.602 205.797 195.008 205.344 195.008 204.625ZM201.992 207H203.68V195.727H201.992V207ZM208.047 207H209.875L211.695 203.977H211.734L213.555 207H215.414L212.742 202.844L215.445 198.781H213.578L211.812 201.758H211.773L209.984 198.781H208.086L210.766 202.898L208.047 207ZM217.422 197.516C217.977 197.516 218.406 197.078 218.406 196.547C218.406 196.008 217.977 195.57 217.422 195.57C216.875 195.57 216.438 196.008 216.438 196.547C216.438 197.078 216.875 197.516 217.422 197.516ZM216.578 207H218.266V198.781H216.578V207ZM223.078 207.164C224.258 207.164 225.164 206.57 225.656 205.609H225.688V207H227.383V195.727H225.688V200.18H225.656C225.164 199.211 224.227 198.625 223.062 198.625C221 198.625 219.641 200.266 219.641 202.883V202.891C219.641 205.508 220.984 207.164 223.078 207.164ZM223.523 205.711C222.188 205.711 221.367 204.641 221.367 202.891V202.883C221.367 201.148 222.195 200.07 223.523 200.07C224.789 200.07 225.695 201.18 225.695 202.883V202.891C225.695 204.602 224.797 205.711 223.523 205.711ZM229.117 207H230.805V201.922C230.805 200.859 231.516 200.07 232.516 200.07C233.469 200.07 234.07 200.68 234.07 201.633V207H235.727V201.859C235.727 200.82 236.422 200.07 237.422 200.07C238.422 200.07 238.992 200.688 238.992 201.758V207H240.688V201.352C240.688 199.703 239.625 198.625 238 198.625C236.828 198.625 235.859 199.242 235.438 200.242H235.398C235.07 199.211 234.242 198.625 233.109 198.625C232.031 198.625 231.195 199.195 230.844 200.055H230.805V198.781H229.117V207ZM245.656 198.625C243.656 198.625 242.391 199.812 242.133 201.117L242.109 201.195H243.719L243.742 201.133C243.945 200.523 244.617 200.008 245.617 200.008C246.961 200.008 247.812 200.914 247.844 202.461H242.023V203.031C242.023 205.508 243.438 207.164 245.742 207.164C248.047 207.164 249.531 205.445 249.531 202.875V202.867C249.531 200.266 248.07 198.625 245.656 198.625ZM245.734 205.781C244.633 205.781 243.828 205.086 243.688 203.656H247.82C247.664 205.039 246.828 205.781 245.734 205.781ZM253.797 207.164C254.141 207.164 254.461 207.125 254.656 207.094V205.789C254.531 205.805 254.383 205.82 254.203 205.82C253.492 205.82 253.117 205.57 253.117 204.734V200.125H254.656V198.781H253.117V196.641H251.391V198.781H250.211V200.125H251.391V204.836C251.391 206.477 252.172 207.164 253.797 207.164ZM256.117 207H257.805V195.727H256.117V207ZM262.875 198.625C260.875 198.625 259.609 199.812 259.352 201.117L259.328 201.195H260.938L260.961 201.133C261.164 200.523 261.836 200.008 262.836 200.008C264.18 200.008 265.031 200.914 265.062 202.461H259.242V203.031C259.242 205.508 260.656 207.164 262.961 207.164C265.266 207.164 266.75 205.445 266.75 202.875V202.867C266.75 200.266 265.289 198.625 262.875 198.625ZM262.953 205.781C261.852 205.781 261.047 205.086 260.906 203.656H265.039C264.883 205.039 264.047 205.781 262.953 205.781ZM268.133 207H269.82V202.102C269.82 200.875 270.492 200.164 271.578 200.164C271.906 200.164 272.203 200.203 272.336 200.258V198.688C272.203 198.664 271.992 198.625 271.75 198.625C270.812 198.625 270.125 199.227 269.859 200.188H269.82V198.781H268.133V207Z" fill="#849097"/>
<path d="M145.798 225.346C146.614 224.43 147.721 223.972 149.12 223.972C150.519 223.972 151.627 224.43 152.442 225.346C153.258 226.262 153.666 227.504 153.666 229.071C153.666 230.639 153.258 231.881 152.442 232.797C151.627 233.708 150.519 234.164 149.12 234.164C147.721 234.164 146.614 233.708 145.798 232.797C144.982 231.881 144.574 230.639 144.574 229.071C144.574 227.504 144.982 226.262 145.798 225.346ZM151.513 226.18C150.925 225.464 150.127 225.106 149.12 225.106C148.113 225.106 147.313 225.464 146.721 226.18C146.133 226.891 145.839 227.854 145.839 229.071C145.839 230.284 146.133 231.247 146.721 231.963C147.313 232.674 148.113 233.029 149.12 233.029C150.127 233.029 150.925 232.674 151.513 231.963C152.105 231.247 152.401 230.284 152.401 229.071C152.401 227.854 152.105 226.891 151.513 226.18ZM148.375 222.816C148.229 222.962 148.054 223.035 147.849 223.035C147.644 223.035 147.466 222.962 147.315 222.816C147.17 222.671 147.097 222.493 147.097 222.283C147.097 222.074 147.17 221.896 147.315 221.75C147.466 221.604 147.644 221.531 147.849 221.531C148.054 221.531 148.229 221.604 148.375 221.75C148.525 221.896 148.601 222.074 148.601 222.283C148.601 222.493 148.525 222.671 148.375 222.816ZM150.918 222.816C150.772 222.962 150.597 223.035 150.392 223.035C150.187 223.035 150.009 222.962 149.858 222.816C149.713 222.671 149.64 222.493 149.64 222.283C149.64 222.074 149.713 221.896 149.858 221.75C150.009 221.604 150.187 221.531 150.392 221.531C150.597 221.531 150.772 221.604 150.918 221.75C151.068 221.896 151.144 222.074 151.144 222.283C151.144 222.493 151.068 222.671 150.918 222.816ZM157.706 234.123C156.795 234.123 156.059 233.788 155.498 233.118C154.942 232.448 154.664 231.557 154.664 230.445C154.664 229.338 154.942 228.449 155.498 227.779C156.054 227.105 156.781 226.768 157.679 226.768C158.18 226.768 158.629 226.882 159.025 227.109C159.422 227.337 159.727 227.649 159.941 228.046H159.969V224.136H161.158V234H160.023V232.797H160.003C159.771 233.212 159.456 233.537 159.06 233.774C158.663 234.007 158.212 234.123 157.706 234.123ZM157.932 227.813C157.303 227.813 156.804 228.053 156.435 228.531C156.065 229.005 155.881 229.643 155.881 230.445C155.881 231.252 156.065 231.892 156.435 232.366C156.804 232.84 157.303 233.077 157.932 233.077C158.547 233.077 159.041 232.838 159.415 232.359C159.789 231.876 159.976 231.238 159.976 230.445C159.976 229.652 159.786 229.017 159.408 228.538C159.035 228.055 158.542 227.813 157.932 227.813ZM165.595 233.098C166.155 233.098 166.616 232.911 166.976 232.537C167.34 232.163 167.543 231.664 167.584 231.04H163.715C163.724 231.66 163.899 232.159 164.241 232.537C164.588 232.911 165.039 233.098 165.595 233.098ZM163.742 228.743H162.573C162.746 228.142 163.097 227.663 163.626 227.308C164.155 226.948 164.799 226.768 165.561 226.768C166.559 226.768 167.347 227.098 167.926 227.759C168.509 228.42 168.801 229.313 168.801 230.438C168.801 231.56 168.509 232.455 167.926 233.125C167.342 233.79 166.561 234.123 165.581 234.123C164.619 234.123 163.863 233.804 163.312 233.166C162.76 232.528 162.484 231.658 162.484 230.555L162.505 230.11H167.584V230.056C167.584 229.368 167.397 228.818 167.023 228.408C166.65 227.998 166.162 227.793 165.561 227.793C164.672 227.793 164.066 228.11 163.742 228.743ZM170.065 234V226.891H171.187V228.025H171.214C171.419 227.629 171.713 227.321 172.096 227.103C172.479 226.879 172.937 226.768 173.47 226.768C174.244 226.768 174.848 227.002 175.281 227.472C175.714 227.937 175.931 228.575 175.931 229.386V234H174.741V229.598C174.741 229.019 174.604 228.579 174.331 228.278C174.058 227.973 173.65 227.82 173.107 227.82C172.547 227.82 172.098 228.003 171.761 228.367C171.424 228.732 171.255 229.215 171.255 229.816V234H170.065ZM177.51 234V226.891H178.699V234H177.51ZM178.104 225.694C177.904 225.694 177.731 225.621 177.585 225.476C177.439 225.33 177.366 225.157 177.366 224.956C177.366 224.751 177.439 224.578 177.585 224.437C177.731 224.291 177.904 224.218 178.104 224.218C178.31 224.218 178.485 224.291 178.631 224.437C178.777 224.578 178.85 224.751 178.85 224.956C178.85 225.157 178.777 225.33 178.631 225.476C178.485 225.621 178.31 225.694 178.104 225.694ZM180.367 234V224.136H181.557V234H180.367ZM183.225 234V226.891H184.414V234H183.225ZM183.819 225.694C183.619 225.694 183.446 225.621 183.3 225.476C183.154 225.33 183.081 225.157 183.081 224.956C183.081 224.751 183.154 224.578 183.3 224.437C183.446 224.291 183.619 224.218 183.819 224.218C184.024 224.218 184.2 224.291 184.346 224.437C184.492 224.578 184.564 224.751 184.564 224.956C184.564 225.157 184.492 225.33 184.346 225.476C184.2 225.621 184.024 225.694 183.819 225.694ZM189.555 234.123C189.044 234.123 188.589 234.007 188.188 233.774C187.791 233.542 187.477 233.216 187.244 232.797H187.217V234H186.082V224.136H187.271V228.08H187.299C187.522 227.67 187.832 227.349 188.229 227.116C188.63 226.884 189.078 226.768 189.575 226.768C190.473 226.768 191.198 227.103 191.749 227.772C192.3 228.442 192.576 229.333 192.576 230.445C192.576 231.562 192.3 232.455 191.749 233.125C191.198 233.79 190.466 234.123 189.555 234.123ZM189.322 227.813C188.716 227.813 188.222 228.057 187.839 228.545C187.456 229.028 187.265 229.661 187.265 230.445C187.265 231.234 187.456 231.869 187.839 232.353C188.222 232.836 188.716 233.077 189.322 233.077C189.951 233.077 190.448 232.842 190.812 232.373C191.177 231.899 191.359 231.257 191.359 230.445C191.359 229.639 191.177 228.998 190.812 228.524C190.448 228.05 189.951 227.813 189.322 227.813Z" fill="#586268"/>
<rect x="198" y="221" width="16" height="16" rx="8" fill="#00B374"/>
<path fill-rule="evenodd" clip-rule="evenodd" d="M210.265 225.985C210.412 226.131 210.412 226.369 210.265 226.515L204.765 232.015C204.619 232.162 204.381 232.162 204.235 232.015L201.735 229.515C201.588 229.369 201.588 229.131 201.735 228.985C201.881 228.838 202.119 228.838 202.265 228.985L204.5 231.22L209.735 225.985C209.881 225.838 210.119 225.838 210.265 225.985Z" fill="white"/>
<rect x="80" y="261" width="274" height="1" fill="#E8ECF1"/>
<g filter="url(#filter3_d_462_4135)">
<rect x="80" y="282" width="52" height="52" rx="12" fill="#42DA5E" shape-rendering="crispEdges"/>
<path d="M95.5002 304.5H116.5L106 297.5L95.5002 304.5Z" stroke="white" stroke-width="1.5" stroke-linecap="round" stroke-linejoin="round"/>
<path d="M98.1252 304.5V313.25" stroke="white" stroke-width="1.5" stroke-linecap="round" stroke-linejoin="round"/>
<path d="M103.375 304.5V313.25" stroke="white" stroke-width="1.5" stroke-linecap="round" stroke-linejoin="round"/>
<path d="M108.625 304.5V313.25" stroke="white" stroke-width="1.5" stroke-linecap="round" stroke-linejoin="round"/>
<path d="M113.875 304.5V313.25" stroke="white" stroke-width="1.5" stroke-linecap="round" stroke-linejoin="round"/>
<path d="M95.5002 313.25H116.5" stroke="white" stroke-width="1.5" stroke-linecap="round" stroke-linejoin="round"/>
<path d="M93.7502 316.75H118.25" stroke="white" stroke-width="1.5" stroke-linecap="round" stroke-linejoin="round"/>
<rect x="80.5" y="282.5" width="51" height="51" rx="11.5" stroke="white" shape-rendering="crispEdges"/>
</g>
<path d="M145.906 287.523C146.43 287.523 146.844 287.102 146.844 286.594C146.844 286.094 146.43 285.68 145.906 285.68C145.391 285.68 144.977 286.094 144.977 286.594C144.977 287.102 145.391 287.523 145.906 287.523ZM145.039 300H146.789V288.727H145.039V300ZM148.664 300H150.352V295.211C150.352 293.93 151.117 293.07 152.305 293.07C153.477 293.07 154.055 293.766 154.055 295V300H155.75V294.68C155.75 292.789 154.711 291.625 152.906 291.625C151.664 291.625 150.82 292.188 150.391 293.023H150.352V291.781H148.664V300ZM157.148 300H163.516V298.664H159.188V298.633L163.469 292.938V291.781H157.18V293.125H161.539V293.156L157.148 298.914V300ZM165.938 290.516C166.492 290.516 166.922 290.078 166.922 289.547C166.922 289.008 166.492 288.57 165.938 288.57C165.391 288.57 164.953 289.008 164.953 289.547C164.953 290.078 165.391 290.516 165.938 290.516ZM165.094 300H166.781V291.781H165.094V300ZM172.891 300.164C174.977 300.164 176.328 298.508 176.328 295.891V295.883C176.328 293.266 174.969 291.625 172.906 291.625C171.742 291.625 170.805 292.211 170.312 293.18H170.273V288.727H168.586V300H170.273V298.609H170.312C170.797 299.57 171.711 300.164 172.891 300.164ZM172.445 298.711C171.164 298.711 170.266 297.602 170.266 295.891V295.883C170.266 294.18 171.172 293.07 172.445 293.07C173.773 293.07 174.602 294.148 174.602 295.883V295.891C174.602 297.641 173.773 298.711 172.445 298.711ZM180.047 300.148C181.133 300.148 182.086 299.586 182.562 298.703H182.594V300H184.289V294.336C184.289 292.688 183.016 291.625 181.008 291.625C178.984 291.625 177.758 292.711 177.641 294.125L177.633 294.211H179.227L179.242 294.141C179.383 293.484 179.984 293.023 180.961 293.023C182.008 293.023 182.594 293.57 182.594 294.477V295.094L180.359 295.227C178.414 295.344 177.305 296.219 177.305 297.648V297.664C177.305 299.141 178.406 300.148 180.047 300.148ZM179.008 297.625V297.609C179.008 296.914 179.57 296.469 180.586 296.406L182.594 296.281V296.922C182.594 297.992 181.695 298.797 180.508 298.797C179.602 298.797 179.008 298.344 179.008 297.625ZM188.812 300.164C189.156 300.164 189.477 300.125 189.672 300.094V298.789C189.547 298.805 189.398 298.82 189.219 298.82C188.508 298.82 188.133 298.57 188.133 297.734V293.125H189.672V291.781H188.133V289.641H186.406V291.781H185.227V293.125H186.406V297.836C186.406 299.477 187.188 300.164 188.812 300.164ZM191.984 290.516C192.539 290.516 192.969 290.078 192.969 289.547C192.969 289.008 192.539 288.57 191.984 288.57C191.438 288.57 191 289.008 191 289.547C191 290.078 191.438 290.516 191.984 290.516ZM191.141 300H192.828V291.781H191.141V300ZM201.352 300.164C203.328 300.164 204.703 298.898 204.883 297.25L204.891 297.195H203.266L203.258 297.258C203.055 298.148 202.391 298.75 201.352 298.75C200.047 298.75 199.18 297.695 199.18 295.898V295.891C199.18 294.133 200.031 293.039 201.344 293.039C202.445 293.039 203.07 293.719 203.25 294.523L203.266 294.586H204.875L204.867 294.531C204.727 292.984 203.445 291.625 201.328 291.625C198.984 291.625 197.453 293.273 197.453 295.875V295.883C197.453 298.516 198.953 300.164 201.352 300.164ZM209.422 291.625C207.422 291.625 206.156 292.812 205.898 294.117L205.875 294.195H207.484L207.508 294.133C207.711 293.523 208.383 293.008 209.383 293.008C210.727 293.008 211.578 293.914 211.609 295.461H205.789V296.031C205.789 298.508 207.203 300.164 209.508 300.164C211.812 300.164 213.297 298.445 213.297 295.875V295.867C213.297 293.266 211.836 291.625 209.422 291.625ZM209.5 298.781C208.398 298.781 207.594 298.086 207.453 296.656H211.586C211.43 298.039 210.594 298.781 209.5 298.781ZM214.68 300H216.367V295.102C216.367 293.875 217.039 293.164 218.125 293.164C218.453 293.164 218.75 293.203 218.883 293.258V291.688C218.75 291.664 218.539 291.625 218.297 291.625C217.359 291.625 216.672 292.227 216.406 293.188H216.367V291.781H214.68V300ZM220.844 290.516C221.398 290.516 221.828 290.078 221.828 289.547C221.828 289.008 221.398 288.57 220.844 288.57C220.297 288.57 219.859 289.008 219.859 289.547C219.859 290.078 220.297 290.516 220.844 290.516ZM220 300H221.688V291.781H220V300ZM223.43 300H225.117V294.922C225.117 293.859 225.828 293.07 226.828 293.07C227.781 293.07 228.383 293.68 228.383 294.633V300H230.039V294.859C230.039 293.82 230.734 293.07 231.734 293.07C232.734 293.07 233.305 293.688 233.305 294.758V300H235V294.352C235 292.703 233.938 291.625 232.312 291.625C231.141 291.625 230.172 292.242 229.75 293.242H229.711C229.383 292.211 228.555 291.625 227.422 291.625C226.344 291.625 225.508 292.195 225.156 293.055H225.117V291.781H223.43V300ZM239.969 291.625C237.969 291.625 236.703 292.812 236.445 294.117L236.422 294.195H238.031L238.055 294.133C238.258 293.523 238.93 293.008 239.93 293.008C241.273 293.008 242.125 293.914 242.156 295.461H236.336V296.031C236.336 298.508 237.75 300.164 240.055 300.164C242.359 300.164 243.844 298.445 243.844 295.875V295.867C243.844 293.266 242.383 291.625 239.969 291.625ZM240.047 298.781C238.945 298.781 238.141 298.086 238 296.656H242.133C241.977 298.039 241.141 298.781 240.047 298.781ZM250.477 290.523C250.984 290.523 251.375 290.125 251.375 289.625C251.375 289.133 250.984 288.734 250.477 288.734C249.969 288.734 249.562 289.133 249.562 289.625C249.562 290.125 249.969 290.523 250.477 290.523ZM253.547 290.523C254.062 290.523 254.461 290.125 254.461 289.625C254.461 289.133 254.062 288.734 253.547 288.734C253.047 288.734 252.648 289.133 252.648 289.625C252.648 290.125 253.047 290.523 253.547 290.523ZM252.008 300.164C254.359 300.164 255.906 298.539 255.906 295.891V295.875C255.906 293.242 254.344 291.625 252 291.625C249.664 291.625 248.109 293.25 248.109 295.875V295.891C248.109 298.531 249.648 300.164 252.008 300.164ZM252.016 298.75C250.695 298.75 249.836 297.711 249.836 295.891V295.875C249.836 294.078 250.703 293.039 252 293.039C253.32 293.039 254.18 294.078 254.18 295.875V295.891C254.18 297.703 253.336 298.75 252.016 298.75ZM260.281 300.164C261.461 300.164 262.367 299.57 262.859 298.609H262.891V300H264.586V288.727H262.891V293.18H262.859C262.367 292.211 261.43 291.625 260.266 291.625C258.203 291.625 256.844 293.266 256.844 295.883V295.891C256.844 298.508 258.188 300.164 260.281 300.164ZM260.727 298.711C259.391 298.711 258.57 297.641 258.57 295.891V295.883C258.57 294.148 259.398 293.07 260.727 293.07C261.992 293.07 262.898 294.18 262.898 295.883V295.891C262.898 297.602 262 298.711 260.727 298.711ZM269.656 291.625C267.656 291.625 266.391 292.812 266.133 294.117L266.109 294.195H267.719L267.742 294.133C267.945 293.523 268.617 293.008 269.617 293.008C270.961 293.008 271.812 293.914 271.844 295.461H266.023V296.031C266.023 298.508 267.438 300.164 269.742 300.164C272.047 300.164 273.531 298.445 273.531 295.875V295.867C273.531 293.266 272.07 291.625 269.656 291.625ZM269.734 298.781C268.633 298.781 267.828 298.086 267.688 296.656H271.82C271.664 298.039 270.828 298.781 269.734 298.781ZM274.914 300H276.602V295.211C276.602 293.93 277.367 293.07 278.555 293.07C279.727 293.07 280.305 293.766 280.305 295V300H282V294.68C282 292.789 280.961 291.625 279.156 291.625C277.914 291.625 277.07 292.188 276.641 293.023H276.602V291.781H274.914V300ZM284.547 290.516C285.102 290.516 285.531 290.078 285.531 289.547C285.531 289.008 285.102 288.57 284.547 288.57C284 288.57 283.562 289.008 283.562 289.547C283.562 290.078 284 290.516 284.547 290.516ZM283.703 300H285.391V291.781H283.703V300ZM290.031 303.617C290.992 303.617 291.789 303.078 291.789 302.148V302.133C291.789 301.234 291.227 300.766 290.383 300.703L290.758 300.133C292.406 299.961 293.555 298.992 293.555 297.633V297.625C293.555 296.445 292.914 295.781 291.234 295.391L289.898 295.086C289.016 294.875 288.68 294.531 288.68 294.023V294.016C288.68 293.359 289.25 292.93 290.156 292.93C291.109 292.93 291.672 293.43 291.773 294.148L291.781 294.203H293.367L293.359 294.109C293.273 292.711 292.102 291.625 290.156 291.625C288.266 291.625 286.984 292.633 286.984 294.102V294.109C286.984 295.305 287.758 296.055 289.32 296.414L290.664 296.719C291.547 296.93 291.844 297.234 291.844 297.766V297.773C291.844 298.438 291.234 298.859 290.219 298.859C289.18 298.859 288.617 298.414 288.461 297.656L288.445 297.578H286.773L286.781 297.648C286.938 299.016 287.945 299.977 289.68 300.141L289.172 300.906V301.594H289.508C290.102 301.594 290.406 301.773 290.406 302.133V302.148C290.406 302.477 290.055 302.602 289.633 302.602C289.312 302.602 288.992 302.539 288.812 302.477V303.422C289.055 303.531 289.523 303.617 290.031 303.617ZM294.93 300H296.617V288.727H294.93V300ZM301.688 291.625C299.688 291.625 298.422 292.812 298.164 294.117L298.141 294.195H299.75L299.773 294.133C299.977 293.523 300.648 293.008 301.648 293.008C302.992 293.008 303.844 293.914 303.875 295.461H298.055V296.031C298.055 298.508 299.469 300.164 301.773 300.164C304.078 300.164 305.562 298.445 305.562 295.875V295.867C305.562 293.266 304.102 291.625 301.688 291.625ZM301.766 298.781C300.664 298.781 299.859 298.086 299.719 296.656H303.852C303.695 298.039 302.859 298.781 301.766 298.781ZM306.945 300H308.633V295.102C308.633 293.875 309.305 293.164 310.391 293.164C310.719 293.164 311.016 293.203 311.148 293.258V291.688C311.016 291.664 310.805 291.625 310.562 291.625C309.625 291.625 308.938 292.227 308.672 293.188H308.633V291.781H306.945V300ZM313.109 290.516C313.664 290.516 314.094 290.078 314.094 289.547C314.094 289.008 313.664 288.57 313.109 288.57C312.562 288.57 312.125 289.008 312.125 289.547C312.125 290.078 312.562 290.516 313.109 290.516ZM312.266 300H313.953V291.781H312.266V300Z" fill="#849097"/>
<path d="M145.798 318.346C146.614 317.43 147.721 316.972 149.12 316.972C150.519 316.972 151.627 317.43 152.442 318.346C153.258 319.262 153.666 320.504 153.666 322.071C153.666 323.639 153.258 324.881 152.442 325.797C151.627 326.708 150.519 327.164 149.12 327.164C147.721 327.164 146.614 326.708 145.798 325.797C144.982 324.881 144.574 323.639 144.574 322.071C144.574 320.504 144.982 319.262 145.798 318.346ZM151.513 319.18C150.925 318.464 150.127 318.106 149.12 318.106C148.113 318.106 147.313 318.464 146.721 319.18C146.133 319.891 145.839 320.854 145.839 322.071C145.839 323.284 146.133 324.247 146.721 324.963C147.313 325.674 148.113 326.029 149.12 326.029C150.127 326.029 150.925 325.674 151.513 324.963C152.105 324.247 152.401 323.284 152.401 322.071C152.401 320.854 152.105 319.891 151.513 319.18ZM148.375 315.816C148.229 315.962 148.054 316.035 147.849 316.035C147.644 316.035 147.466 315.962 147.315 315.816C147.17 315.671 147.097 315.493 147.097 315.283C147.097 315.074 147.17 314.896 147.315 314.75C147.466 314.604 147.644 314.531 147.849 314.531C148.054 314.531 148.229 314.604 148.375 314.75C148.525 314.896 148.601 315.074 148.601 315.283C148.601 315.493 148.525 315.671 148.375 315.816ZM150.918 315.816C150.772 315.962 150.597 316.035 150.392 316.035C150.187 316.035 150.009 315.962 149.858 315.816C149.713 315.671 149.64 315.493 149.64 315.283C149.64 315.074 149.713 314.896 149.858 314.75C150.009 314.604 150.187 314.531 150.392 314.531C150.597 314.531 150.772 314.604 150.918 314.75C151.068 314.896 151.144 315.074 151.144 315.283C151.144 315.493 151.068 315.671 150.918 315.816ZM157.706 327.123C156.795 327.123 156.059 326.788 155.498 326.118C154.942 325.448 154.664 324.557 154.664 323.445C154.664 322.338 154.942 321.449 155.498 320.779C156.054 320.105 156.781 319.768 157.679 319.768C158.18 319.768 158.629 319.882 159.025 320.109C159.422 320.337 159.727 320.649 159.941 321.046H159.969V317.136H161.158V327H160.023V325.797H160.003C159.771 326.212 159.456 326.537 159.06 326.774C158.663 327.007 158.212 327.123 157.706 327.123ZM157.932 320.813C157.303 320.813 156.804 321.053 156.435 321.531C156.065 322.005 155.881 322.643 155.881 323.445C155.881 324.252 156.065 324.892 156.435 325.366C156.804 325.84 157.303 326.077 157.932 326.077C158.547 326.077 159.041 325.838 159.415 325.359C159.789 324.876 159.976 324.238 159.976 323.445C159.976 322.652 159.786 322.017 159.408 321.538C159.035 321.055 158.542 320.813 157.932 320.813ZM165.595 326.098C166.155 326.098 166.616 325.911 166.976 325.537C167.34 325.163 167.543 324.664 167.584 324.04H163.715C163.724 324.66 163.899 325.159 164.241 325.537C164.588 325.911 165.039 326.098 165.595 326.098ZM163.742 321.743H162.573C162.746 321.142 163.097 320.663 163.626 320.308C164.155 319.948 164.799 319.768 165.561 319.768C166.559 319.768 167.347 320.098 167.926 320.759C168.509 321.42 168.801 322.313 168.801 323.438C168.801 324.56 168.509 325.455 167.926 326.125C167.342 326.79 166.561 327.123 165.581 327.123C164.619 327.123 163.863 326.804 163.312 326.166C162.76 325.528 162.484 324.658 162.484 323.555L162.505 323.11H167.584V323.056C167.584 322.368 167.397 321.818 167.023 321.408C166.65 320.998 166.162 320.793 165.561 320.793C164.672 320.793 164.066 321.11 163.742 321.743ZM170.065 327V319.891H171.187V321.025H171.214C171.419 320.629 171.713 320.321 172.096 320.103C172.479 319.879 172.937 319.768 173.47 319.768C174.244 319.768 174.848 320.002 175.281 320.472C175.714 320.937 175.931 321.575 175.931 322.386V327H174.741V322.598C174.741 322.019 174.604 321.579 174.331 321.278C174.058 320.973 173.65 320.82 173.107 320.82C172.547 320.82 172.098 321.003 171.761 321.367C171.424 321.732 171.255 322.215 171.255 322.816V327H170.065ZM177.51 327V319.891H178.699V327H177.51ZM178.104 318.694C177.904 318.694 177.731 318.621 177.585 318.476C177.439 318.33 177.366 318.157 177.366 317.956C177.366 317.751 177.439 317.578 177.585 317.437C177.731 317.291 177.904 317.218 178.104 317.218C178.31 317.218 178.485 317.291 178.631 317.437C178.777 317.578 178.85 317.751 178.85 317.956C178.85 318.157 178.777 318.33 178.631 318.476C178.485 318.621 178.31 318.694 178.104 318.694ZM180.367 327V317.136H181.557V327H180.367ZM183.225 327V319.891H184.414V327H183.225ZM183.819 318.694C183.619 318.694 183.446 318.621 183.3 318.476C183.154 318.33 183.081 318.157 183.081 317.956C183.081 317.751 183.154 317.578 183.3 317.437C183.446 317.291 183.619 317.218 183.819 317.218C184.024 317.218 184.2 317.291 184.346 317.437C184.492 317.578 184.564 317.751 184.564 317.956C184.564 318.157 184.492 318.33 184.346 318.476C184.2 318.621 184.024 318.694 183.819 318.694ZM189.555 327.123C189.044 327.123 188.589 327.007 188.188 326.774C187.791 326.542 187.477 326.216 187.244 325.797H187.217V327H186.082V317.136H187.271V321.08H187.299C187.522 320.67 187.832 320.349 188.229 320.116C188.63 319.884 189.078 319.768 189.575 319.768C190.473 319.768 191.198 320.103 191.749 320.772C192.3 321.442 192.576 322.333 192.576 323.445C192.576 324.562 192.3 325.455 191.749 326.125C191.198 326.79 190.466 327.123 189.555 327.123ZM189.322 320.813C188.716 320.813 188.222 321.057 187.839 321.545C187.456 322.028 187.265 322.661 187.265 323.445C187.265 324.234 187.456 324.869 187.839 325.353C188.222 325.836 188.716 326.077 189.322 326.077C189.951 326.077 190.448 325.842 190.812 325.373C191.177 324.899 191.359 324.257 191.359 323.445C191.359 322.639 191.177 321.998 190.812 321.524C190.448 321.05 189.951 320.813 189.322 320.813Z" fill="#586268"/>
<rect x="198" y="314" width="16" height="16" rx="8" fill="#00B374"/>
<path fill-rule="evenodd" clip-rule="evenodd" d="M210.265 318.985C210.412 319.131 210.412 319.369 210.265 319.515L204.765 325.015C204.619 325.162 204.381 325.162 204.235 325.015L201.735 322.515C201.588 322.369 201.588 322.131 201.735 321.985C201.881 321.838 202.119 321.838 202.265 321.985L204.5 324.22L209.735 318.985C209.881 318.838 210.119 318.838 210.265 318.985Z" fill="white"/>
<rect x="80" y="354" width="274" height="1" fill="#E8ECF1"/>
<g filter="url(#filter4_d_462_4135)">
<rect x="80" y="375" width="52" height="52" rx="12" fill="#8B61F4" shape-rendering="crispEdges"/>
<path fill-rule="evenodd" clip-rule="evenodd" d="M96.1137 391.446C95.8508 391.446 95.6377 391.66 95.6377 391.922V405.288C95.6377 405.551 95.851 405.764 96.1137 405.764H115.886C116.15 405.764 116.362 405.55 116.362 405.289V391.922C116.362 391.659 116.149 391.446 115.886 391.446H96.1137ZM93.8877 391.922C93.8877 390.694 94.8833 389.696 96.1137 389.696H115.886C117.115 389.696 118.112 390.692 118.112 391.922V405.289C118.112 406.519 117.114 407.514 115.886 407.514H96.1137C94.8854 407.514 93.8877 406.518 93.8877 405.288V391.922Z" fill="white"/>
<path fill-rule="evenodd" clip-rule="evenodd" d="M106 411.28C103.092 411.28 100.221 411.616 98.0686 412.265C97.606 412.405 97.1178 412.143 96.9782 411.681C96.8386 411.218 97.1004 410.73 97.5631 410.59C99.9305 409.876 102.984 409.53 106 409.53C109.016 409.53 112.07 409.876 114.438 410.59C114.901 410.73 115.163 411.218 115.023 411.681C114.884 412.143 114.395 412.405 113.933 412.265C111.78 411.616 108.909 411.28 106 411.28Z" fill="white"/>
<rect x="80.5" y="375.5" width="51" height="51" rx="11.5" stroke="white" shape-rendering="crispEdges"/>
</g>
<path d="M145.906 380.523C146.43 380.523 146.844 380.102 146.844 379.594C146.844 379.094 146.43 378.68 145.906 378.68C145.391 378.68 144.977 379.094 144.977 379.594C144.977 380.102 145.391 380.523 145.906 380.523ZM145.039 393H146.789V381.727H145.039V393ZM148.664 393H150.352V388.211C150.352 386.93 151.117 386.07 152.305 386.07C153.477 386.07 154.055 386.766 154.055 388V393H155.75V387.68C155.75 385.789 154.711 384.625 152.906 384.625C151.664 384.625 150.82 385.188 150.391 386.023H150.352V384.781H148.664V393ZM160.266 393.164C160.609 393.164 160.93 393.125 161.125 393.094V391.789C161 391.805 160.852 391.82 160.672 391.82C159.961 391.82 159.586 391.57 159.586 390.734V386.125H161.125V384.781H159.586V382.641H157.859V384.781H156.68V386.125H157.859V390.836C157.859 392.477 158.641 393.164 160.266 393.164ZM165.828 393.164C167.82 393.164 169.086 391.977 169.352 390.672L169.367 390.586H167.766L167.742 390.648C167.531 391.266 166.867 391.781 165.867 391.781C164.523 391.781 163.672 390.875 163.641 389.32H169.461V388.75C169.461 386.281 168.047 384.625 165.742 384.625C163.438 384.625 161.953 386.344 161.953 388.914V388.922C161.953 391.516 163.414 393.164 165.828 393.164ZM165.75 386.008C166.852 386.008 167.648 386.703 167.789 388.125H163.664C163.812 386.75 164.656 386.008 165.75 386.008ZM170.773 393H172.461V388.102C172.461 386.875 173.133 386.164 174.219 386.164C174.547 386.164 174.844 386.203 174.977 386.258V384.688C174.844 384.664 174.633 384.625 174.391 384.625C173.453 384.625 172.766 385.227 172.5 386.188H172.461V384.781H170.773V393ZM176.023 393H177.711V388.211C177.711 386.93 178.477 386.07 179.664 386.07C180.836 386.07 181.414 386.766 181.414 388V393H183.109V387.68C183.109 385.789 182.07 384.625 180.266 384.625C179.023 384.625 178.18 385.188 177.75 386.023H177.711V384.781H176.023V393ZM188.25 393.164C190.242 393.164 191.508 391.977 191.773 390.672L191.789 390.586H190.188L190.164 390.648C189.953 391.266 189.289 391.781 188.289 391.781C186.945 391.781 186.094 390.875 186.062 389.32H191.883V388.75C191.883 386.281 190.469 384.625 188.164 384.625C185.859 384.625 184.375 386.344 184.375 388.914V388.922C184.375 391.516 185.836 393.164 188.25 393.164ZM188.172 386.008C189.273 386.008 190.07 386.703 190.211 388.125H186.086C186.234 386.75 187.078 386.008 188.172 386.008ZM196.078 393.164C196.422 393.164 196.742 393.125 196.938 393.094V391.789C196.812 391.805 196.664 391.82 196.484 391.82C195.773 391.82 195.398 391.57 195.398 390.734V386.125H196.938V384.781H195.398V382.641H193.672V384.781H192.492V386.125H193.672V390.836C193.672 392.477 194.453 393.164 196.078 393.164Z" fill="#849097"/>
<path d="M145.798 411.346C146.614 410.43 147.721 409.972 149.12 409.972C150.519 409.972 151.627 410.43 152.442 411.346C153.258 412.262 153.666 413.504 153.666 415.071C153.666 416.639 153.258 417.881 152.442 418.797C151.627 419.708 150.519 420.164 149.12 420.164C147.721 420.164 146.614 419.708 145.798 418.797C144.982 417.881 144.574 416.639 144.574 415.071C144.574 413.504 144.982 412.262 145.798 411.346ZM151.513 412.18C150.925 411.464 150.127 411.106 149.12 411.106C148.113 411.106 147.313 411.464 146.721 412.18C146.133 412.891 145.839 413.854 145.839 415.071C145.839 416.284 146.133 417.247 146.721 417.963C147.313 418.674 148.113 419.029 149.12 419.029C150.127 419.029 150.925 418.674 151.513 417.963C152.105 417.247 152.401 416.284 152.401 415.071C152.401 413.854 152.105 412.891 151.513 412.18ZM148.375 408.816C148.229 408.962 148.054 409.035 147.849 409.035C147.644 409.035 147.466 408.962 147.315 408.816C147.17 408.671 147.097 408.493 147.097 408.283C147.097 408.074 147.17 407.896 147.315 407.75C147.466 407.604 147.644 407.531 147.849 407.531C148.054 407.531 148.229 407.604 148.375 407.75C148.525 407.896 148.601 408.074 148.601 408.283C148.601 408.493 148.525 408.671 148.375 408.816ZM150.918 408.816C150.772 408.962 150.597 409.035 150.392 409.035C150.187 409.035 150.009 408.962 149.858 408.816C149.713 408.671 149.64 408.493 149.64 408.283C149.64 408.074 149.713 407.896 149.858 407.75C150.009 407.604 150.187 407.531 150.392 407.531C150.597 407.531 150.772 407.604 150.918 407.75C151.068 407.896 151.144 408.074 151.144 408.283C151.144 408.493 151.068 408.671 150.918 408.816ZM157.706 420.123C156.795 420.123 156.059 419.788 155.498 419.118C154.942 418.448 154.664 417.557 154.664 416.445C154.664 415.338 154.942 414.449 155.498 413.779C156.054 413.105 156.781 412.768 157.679 412.768C158.18 412.768 158.629 412.882 159.025 413.109C159.422 413.337 159.727 413.649 159.941 414.046H159.969V410.136H161.158V420H160.023V418.797H160.003C159.771 419.212 159.456 419.537 159.06 419.774C158.663 420.007 158.212 420.123 157.706 420.123ZM157.932 413.813C157.303 413.813 156.804 414.053 156.435 414.531C156.065 415.005 155.881 415.643 155.881 416.445C155.881 417.252 156.065 417.892 156.435 418.366C156.804 418.84 157.303 419.077 157.932 419.077C158.547 419.077 159.041 418.838 159.415 418.359C159.789 417.876 159.976 417.238 159.976 416.445C159.976 415.652 159.786 415.017 159.408 414.538C159.035 414.055 158.542 413.813 157.932 413.813ZM165.595 419.098C166.155 419.098 166.616 418.911 166.976 418.537C167.34 418.163 167.543 417.664 167.584 417.04H163.715C163.724 417.66 163.899 418.159 164.241 418.537C164.588 418.911 165.039 419.098 165.595 419.098ZM163.742 414.743H162.573C162.746 414.142 163.097 413.663 163.626 413.308C164.155 412.948 164.799 412.768 165.561 412.768C166.559 412.768 167.347 413.098 167.926 413.759C168.509 414.42 168.801 415.313 168.801 416.438C168.801 417.56 168.509 418.455 167.926 419.125C167.342 419.79 166.561 420.123 165.581 420.123C164.619 420.123 163.863 419.804 163.312 419.166C162.76 418.528 162.484 417.658 162.484 416.555L162.505 416.11H167.584V416.056C167.584 415.368 167.397 414.818 167.023 414.408C166.65 413.998 166.162 413.793 165.561 413.793C164.672 413.793 164.066 414.11 163.742 414.743ZM170.065 420V412.891H171.187V414.025H171.214C171.419 413.629 171.713 413.321 172.096 413.103C172.479 412.879 172.937 412.768 173.47 412.768C174.244 412.768 174.848 413.002 175.281 413.472C175.714 413.937 175.931 414.575 175.931 415.386V420H174.741V415.598C174.741 415.019 174.604 414.579 174.331 414.278C174.058 413.973 173.65 413.82 173.107 413.82C172.547 413.82 172.098 414.003 171.761 414.367C171.424 414.732 171.255 415.215 171.255 415.816V420H170.065ZM177.51 420V412.891H178.699V420H177.51ZM178.104 411.694C177.904 411.694 177.731 411.621 177.585 411.476C177.439 411.33 177.366 411.157 177.366 410.956C177.366 410.751 177.439 410.578 177.585 410.437C177.731 410.291 177.904 410.218 178.104 410.218C178.31 410.218 178.485 410.291 178.631 410.437C178.777 410.578 178.85 410.751 178.85 410.956C178.85 411.157 178.777 411.33 178.631 411.476C178.485 411.621 178.31 411.694 178.104 411.694ZM180.367 420V410.136H181.557V420H180.367ZM183.225 420V412.891H184.414V420H183.225ZM183.819 411.694C183.619 411.694 183.446 411.621 183.3 411.476C183.154 411.33 183.081 411.157 183.081 410.956C183.081 410.751 183.154 410.578 183.3 410.437C183.446 410.291 183.619 410.218 183.819 410.218C184.024 410.218 184.2 410.291 184.346 410.437C184.492 410.578 184.564 410.751 184.564 410.956C184.564 411.157 184.492 411.33 184.346 411.476C184.2 411.621 184.024 411.694 183.819 411.694ZM189.555 420.123C189.044 420.123 188.589 420.007 188.188 419.774C187.791 419.542 187.477 419.216 187.244 418.797H187.217V420H186.082V410.136H187.271V414.08H187.299C187.522 413.67 187.832 413.349 188.229 413.116C188.63 412.884 189.078 412.768 189.575 412.768C190.473 412.768 191.198 413.103 191.749 413.772C192.3 414.442 192.576 415.333 192.576 416.445C192.576 417.562 192.3 418.455 191.749 419.125C191.198 419.79 190.466 420.123 189.555 420.123ZM189.322 413.813C188.716 413.813 188.222 414.057 187.839 414.545C187.456 415.028 187.265 415.661 187.265 416.445C187.265 417.234 187.456 417.869 187.839 418.353C188.222 418.836 188.716 419.077 189.322 419.077C189.951 419.077 190.448 418.842 190.812 418.373C191.177 417.899 191.359 417.257 191.359 416.445C191.359 415.639 191.177 414.998 190.812 414.524C190.448 414.05 189.951 413.813 189.322 413.813Z" fill="#586268"/>
<rect x="198" y="407" width="16" height="16" rx="8" fill="#00B374"/>
<path fill-rule="evenodd" clip-rule="evenodd" d="M210.265 411.985C210.412 412.131 210.412 412.369 210.265 412.515L204.765 418.015C204.619 418.162 204.381 418.162 204.235 418.015L201.735 415.515C201.588 415.369 201.588 415.131 201.735 414.985C201.881 414.838 202.119 414.838 202.265 414.985L204.5 417.22L209.735 411.985C209.881 411.838 210.119 411.838 210.265 411.985Z" fill="white"/>
<rect x="60.5" y="56.5" width="313" height="430" rx="7.5" stroke="white" shape-rendering="crispEdges"/>
</g>
<defs>
<filter id="filter0_d_462_4135" x="0" y="0" width="434" height="551" filterUnits="userSpaceOnUse" color-interpolation-filters="sRGB">
<feFlood flood-opacity="0" result="BackgroundImageFix"/>
<feColorMatrix in="SourceAlpha" type="matrix" values="0 0 0 0 0 0 0 0 0 0 0 0 0 0 0 0 0 0 127 0" result="hardAlpha"/>
<feOffset dy="4"/>
<feGaussianBlur stdDeviation="30"/>
<feComposite in2="hardAlpha" operator="out"/>
<feColorMatrix type="matrix" values="0 0 0 0 0.211765 0 0 0 0 0.25098 0 0 0 0 0.878431 0 0 0 0.08 0"/>
<feBlend mode="normal" in2="BackgroundImageFix" result="effect1_dropShadow_462_4135"/>
<feBlend mode="normal" in="SourceGraphic" in2="effect1_dropShadow_462_4135" result="shape"/>
</filter>
<filter id="filter1_d_462_4135" x="72" y="88" width="68" height="68" filterUnits="userSpaceOnUse" color-interpolation-filters="sRGB">
<feFlood flood-opacity="0" result="BackgroundImageFix"/>
<feColorMatrix in="SourceAlpha" type="matrix" values="0 0 0 0 0 0 0 0 0 0 0 0 0 0 0 0 0 0 127 0" result="hardAlpha"/>
<feOffset/>
<feGaussianBlur stdDeviation="4"/>
<feComposite in2="hardAlpha" operator="out"/>
<feColorMatrix type="matrix" values="0 0 0 0 0.113725 0 0 0 0 0.305882 0 0 0 0 0.847059 0 0 0 0.15 0"/>
<feBlend mode="normal" in2="BackgroundImageFix" result="effect1_dropShadow_462_4135"/>
<feBlend mode="normal" in="SourceGraphic" in2="effect1_dropShadow_462_4135" result="shape"/>
</filter>
<filter id="filter2_d_462_4135" x="72" y="181" width="68" height="68" filterUnits="userSpaceOnUse" color-interpolation-filters="sRGB">
<feFlood flood-opacity="0" result="BackgroundImageFix"/>
<feColorMatrix in="SourceAlpha" type="matrix" values="0 0 0 0 0 0 0 0 0 0 0 0 0 0 0 0 0 0 127 0" result="hardAlpha"/>
<feOffset/>
<feGaussianBlur stdDeviation="4"/>
<feComposite in2="hardAlpha" operator="out"/>
<feColorMatrix type="matrix" values="0 0 0 0 0.113725 0 0 0 0 0.305882 0 0 0 0 0.847059 0 0 0 0.15 0"/>
<feBlend mode="normal" in2="BackgroundImageFix" result="effect1_dropShadow_462_4135"/>
<feBlend mode="normal" in="SourceGraphic" in2="effect1_dropShadow_462_4135" result="shape"/>
</filter>
<filter id="filter3_d_462_4135" x="72" y="274" width="68" height="68" filterUnits="userSpaceOnUse" color-interpolation-filters="sRGB">
<feFlood flood-opacity="0" result="BackgroundImageFix"/>
<feColorMatrix in="SourceAlpha" type="matrix" values="0 0 0 0 0 0 0 0 0 0 0 0 0 0 0 0 0 0 127 0" result="hardAlpha"/>
<feOffset/>
<feGaussianBlur stdDeviation="4"/>
<feComposite in2="hardAlpha" operator="out"/>
<feColorMatrix type="matrix" values="0 0 0 0 0.113725 0 0 0 0 0.305882 0 0 0 0 0.847059 0 0 0 0.15 0"/>
<feBlend mode="normal" in2="BackgroundImageFix" result="effect1_dropShadow_462_4135"/>
<feBlend mode="normal" in="SourceGraphic" in2="effect1_dropShadow_462_4135" result="shape"/>
</filter>
<filter id="filter4_d_462_4135" x="72" y="367" width="68" height="68" filterUnits="userSpaceOnUse" color-interpolation-filters="sRGB">
<feFlood flood-opacity="0" result="BackgroundImageFix"/>
<feColorMatrix in="SourceAlpha" type="matrix" values="0 0 0 0 0 0 0 0 0 0 0 0 0 0 0 0 0 0 127 0" result="hardAlpha"/>
<feOffset/>
<feGaussianBlur stdDeviation="4"/>
<feComposite in2="hardAlpha" operator="out"/>
<feColorMatrix type="matrix" values="0 0 0 0 0.113725 0 0 0 0 0.305882 0 0 0 0 0.847059 0 0 0 0.15 0"/>
<feBlend mode="normal" in2="BackgroundImageFix" result="effect1_dropShadow_462_4135"/>
<feBlend mode="normal" in="SourceGraphic" in2="effect1_dropShadow_462_4135" result="shape"/>
</filter>
</defs>
</svg>
