<svg width="39" height="24" viewBox="0 0 39 24" fill="none" xmlns="http://www.w3.org/2000/svg">
<path id="Clip 2" fill-rule="evenodd" clip-rule="evenodd" d="M36.0146 0L19.5068 0.00479042C5.98339 0.00958084 2.94626 0.0239521 2.70674 0.0766467C1.7008 0.297006 0.852848 0.938922 0.440919 1.79641C0.244464 2.20359 0.148704 2.50539 0.1008 2.89341C0.0336858 3.39641 0.0384762 20.7329 0.10559 21.2024C0.206141 21.9257 0.503147 22.4958 1.078 23.0707C1.50434 23.497 1.91637 23.7317 2.51996 23.9042C2.85045 24 3.02775 24 16.1774 24C29.3415 24 29.5092 24 29.9738 23.9042C30.7834 23.7365 31.6026 23.3533 32.2732 22.8216C32.6612 22.515 37.193 18.012 37.6481 17.485C38.1798 16.8671 38.5582 16.1341 38.817 15.2479L38.9271 14.8743L38.9415 8.9006C38.9558 2.23713 38.9703 2.57246 38.6205 1.8491C38.1942 0.972455 37.4373 0.359281 36.484 0.11976L36.0146 0ZM30.0638 1.61457C31.0267 1.28882 31.9895 1.1499 33.2878 1.1499C34.9213 1.1499 36.0997 1.38463 37.1345 1.92595C37.4458 2.08403 37.5177 2.14631 37.5943 2.31876C37.7764 2.69721 37.877 3.33433 37.8051 3.61218C37.7716 3.73673 37.7668 3.73673 37.6758 3.6505C37.1057 3.12835 36.1332 2.60619 35.4674 2.47206C35.4195 2.45769 35.2806 2.42894 35.1608 2.40499C34.4326 2.24212 32.4111 2.20858 31.6877 2.34272C31.1081 2.4529 30.4326 2.6493 30.0303 2.82176L29.6183 2.999L29.2399 2.79302C28.8231 2.56787 28.2962 2.38104 27.8602 2.30439C27.5153 2.24212 26.6338 2.23733 26.5428 2.29481C26.4949 2.32835 26.4854 2.40499 26.5141 2.63972C26.5332 2.80739 26.5524 3.07565 26.5572 3.23373L26.562 3.52116L27.0267 3.6026C27.6016 3.7032 28.3824 3.94272 28.7656 4.12954C28.9237 4.21098 29.2207 4.39302 29.4267 4.53673L29.8003 4.79541L30.0494 4.58463C31.0842 3.7032 33.1297 3.31517 34.6339 3.71757C35.3141 3.8996 35.4338 3.94272 35.75 4.1008C36.574 4.51278 37.0434 4.96308 37.3884 5.67206C37.6758 6.25649 37.7476 6.61577 37.7476 7.47804C37.7476 8.53678 37.6135 9.09721 37.1919 9.82535C36.6411 10.7786 35.2231 11.6409 33.9249 11.8134L33.6758 11.8469L33.374 12.4745C33.0243 13.1978 32.6746 13.7727 32.2913 14.2469C32.1428 14.4289 31.9704 14.6445 31.9033 14.7307C31.6446 15.0613 31.4961 15.2481 31.4482 15.3008C31.2566 15.5068 30.9404 15.9044 30.9596 15.9044C31.0267 15.9044 31.8554 15.593 32.0902 15.478C33.0817 14.9942 33.8817 14.3092 34.3991 13.4852C34.6482 13.0924 34.6674 13.078 34.8207 13.078C35.0602 13.078 35.7883 12.8433 36.2961 12.599C36.8422 12.3403 37.1153 12.1631 37.5225 11.8182C37.8386 11.5451 37.8051 11.478 37.7955 12.4074C37.7907 12.8002 37.7716 13.0253 37.7333 13.0637C37.6997 13.0973 37.465 13.2409 37.2063 13.3846C36.7369 13.6529 36.071 13.926 35.6015 14.0409C35.3811 14.0936 35.3237 14.1367 35.1512 14.3667C34.0111 15.8852 32.4782 16.7667 30.2171 17.2074C29.9728 17.2505 28.1093 17.3846 28.0758 17.3559C28.0614 17.3463 28.1476 17.26 28.2674 17.1643C28.9572 16.5846 29.7237 15.751 30.3991 14.8409C30.7632 14.3523 31.7644 12.8433 31.8027 12.7283C31.8123 12.6948 31.8458 12.6373 31.8794 12.599C32.0662 12.3834 32.8135 10.7404 32.8135 10.5535C32.8135 10.4289 32.9237 10.4146 33.235 10.5008C33.9105 10.6925 34.7249 10.5487 35.362 10.1271C36.2578 9.53313 36.6506 8.74751 36.6602 7.54511C36.665 6.8984 36.6075 6.58703 36.392 6.14152C36.1285 5.6002 35.6111 5.18818 34.8782 4.93912C33.8147 4.57505 32.8422 4.57026 31.7931 4.91517C30.9788 5.18818 30.5812 5.4996 30.174 6.18942C30.0686 6.37146 29.968 6.51517 29.9488 6.51517C29.9297 6.51517 29.7332 6.32355 29.5081 6.08882C28.78 5.33194 28.1093 4.95828 27.0411 4.70914C26.7584 4.64691 26.4662 4.62296 25.9009 4.62296C25.4889 4.62296 25.1489 4.61817 25.1489 4.61337C25.1489 4.60858 25.192 4.41697 25.2494 4.19182C25.4267 3.44451 25.374 2.63493 25.1153 2.06008C25.0483 1.91637 24.9668 1.72954 24.9285 1.64332L24.8614 1.49481L25.1632 1.39421C25.7285 1.20744 26.2123 1.1499 27.1129 1.17385C27.6398 1.18344 28.0758 1.22176 28.2865 1.26966C28.4734 1.31278 28.6554 1.35589 28.6937 1.36547C28.7656 1.37984 29.2638 1.56667 29.5368 1.68164C29.589 1.70214 29.6303 1.71393 29.6808 1.71393C29.7601 1.71397 29.8618 1.68485 30.0638 1.61457ZM20.9777 7.16667C20.9921 7.15709 21.0064 7.11876 21.0113 7.08039C21.1118 6.57266 21.3753 6.01218 22.0364 4.92954C22.5298 4.11033 22.7214 3.65529 22.7214 3.28164C22.7214 3.0517 22.6112 2.62056 22.4771 2.32835C22.343 2.04571 21.9166 1.58583 21.5909 1.37026C21.4472 1.26966 21.3274 1.18344 21.3274 1.16906C21.3274 1.15948 21.7154 1.1499 22.1944 1.1499H23.0615L23.349 1.44691C23.5214 1.62894 23.7034 1.88763 23.8088 2.10799C23.9861 2.46248 23.9861 2.46727 23.9813 3.06607C23.9813 3.6266 23.9717 3.68882 23.828 4.03373C23.7465 4.23493 23.5358 4.63733 23.3585 4.92001C22.5537 6.22296 22.3861 6.51038 22.2711 6.77865C21.931 7.58823 21.8927 8.34032 22.1418 9.31757C22.228 9.64811 22.2855 9.93069 22.2759 9.94511C22.1849 10.0313 21.3034 9.50439 21.0113 9.19302C20.7238 8.88164 20.3406 8.33553 19.8711 7.55943C19.4352 6.84571 18.7741 5.88763 18.4628 5.53314C17.0639 3.91397 15.5549 2.93673 13.8064 2.51996C12.8627 2.29481 12.719 2.28044 11.5549 2.28044C10.458 2.28044 10.3861 2.29002 9.52379 2.46727C9.1693 2.53912 8.4172 2.81218 7.97649 3.02775C6.25193 3.86128 5.05433 5.13074 4.07229 7.1523C3.56456 8.19661 3.17174 9.96906 3.23397 10.9224C3.28187 11.617 3.45433 12.6517 3.55977 12.8433C3.58367 12.8961 3.59804 12.9343 3.58367 12.9343C3.52619 12.9343 3.96211 14.0409 4.26391 14.6589C4.68552 15.5164 4.8196 15.7463 5.2699 16.3787C5.75857 17.0637 6.18008 17.5618 6.79804 18.1607C7.49744 18.8457 7.78487 19.0757 8.50343 19.5643C9.72983 20.3834 11.4016 21.0637 12.9681 21.3703C15.507 21.8685 17.361 21.8206 20.5609 21.1739C22.5489 20.7715 23.5646 20.738 24.8483 21.0301C25.5956 21.1978 26.6064 21.6912 27.7322 22.4289L28.331 22.8265L27.2723 22.8409L26.2088 22.8505L25.4807 22.496C24.6807 22.1032 24.3262 22.0074 23.531 21.9546C22.9465 21.9211 21.5334 22.084 20.8005 22.2757C20.5753 22.3332 19.4208 22.5295 18.501 22.6637C17.8447 22.7595 17.567 22.7739 16.1537 22.7739C14.4436 22.7786 14.2376 22.7643 12.9873 22.5104C10.9322 22.1032 8.89145 21.2697 7.61246 20.3164C6.62084 19.5787 5.64355 18.6685 5.01601 17.8924C3.59325 16.1487 2.64475 14.1895 2.28068 12.2589C2.17055 11.6792 2.15134 11.4349 2.14655 10.7307C2.14655 9.90679 2.16571 9.73912 2.36211 8.76667C2.6208 7.51153 3.12863 6.34751 3.96211 5.102C4.92983 3.66008 5.99804 2.72595 7.51665 2.00739C7.78966 1.87805 8.0196 1.77266 8.02918 1.77266C8.0436 1.77266 8.11062 1.7487 8.18726 1.71517C8.35493 1.64811 8.3214 1.65769 8.92499 1.49002C9.39445 1.35589 10.0699 1.22655 10.525 1.17864C10.8795 1.14511 12.8196 1.18823 13.1358 1.24092C15.5262 1.63857 17.4328 2.68763 19.0184 4.46966C19.2723 4.75704 19.5119 5.03972 19.555 5.102C19.5933 5.16427 19.7562 5.37984 19.9142 5.58583C20.0723 5.79182 20.2448 6.03134 20.2974 6.11757C20.6997 6.78176 20.9467 7.16734 20.976 7.16739C20.9767 7.16739 20.9773 7.16715 20.9777 7.16667ZM20.5907 4.17266C20.5859 4.1487 20.4565 3.99541 20.3128 3.82775C19.4314 2.8026 18.4589 1.95948 17.5919 1.46128C17.3763 1.33194 17.1847 1.21218 17.1703 1.18823C17.1559 1.16906 17.6206 1.1499 18.2002 1.1499H19.2541L19.6038 1.37505C20.3368 1.83972 20.8637 2.30439 21.1032 2.68284C21.2996 2.99421 21.3236 3.39661 21.1607 3.72236C21.0225 3.9912 20.7796 4.21687 20.6566 4.21687C20.6261 4.21687 20.603 4.20308 20.5907 4.17266ZM4.10717 2.14152C4.07838 1.85888 3.98741 1.43254 3.91072 1.23134C3.87718 1.15469 3.9443 1.1499 4.91191 1.1499C5.51072 1.1499 5.94665 1.16906 5.94665 1.19302C5.94665 1.21697 5.87479 1.26003 5.78861 1.28882C5.53951 1.37505 4.91191 1.80619 4.55742 2.13673C4.38018 2.30439 4.21251 2.44332 4.18856 2.44332C4.15987 2.44332 4.12629 2.30918 4.10717 2.14152ZM1.25946 4.91914C1.28337 2.52867 1.27858 2.54304 1.65223 2.00173C1.89654 1.64245 2.23666 1.35981 2.32768 1.43646C2.36121 1.4652 2.42832 1.69514 2.47623 1.94903C2.57678 2.52388 2.54804 3.38137 2.39953 3.97059C2.27019 4.49754 1.9684 5.39813 1.77678 5.81969C1.71929 5.95382 1.40792 6.80173 1.36959 6.93107C1.35527 6.99334 1.31695 7.04125 1.29295 7.04125C1.25946 7.04125 1.24983 6.3131 1.25946 4.91914ZM16.1266 20.092C14.8476 20.0871 14.2105 20.02 13.1805 19.7853C11.5039 19.4069 10.1865 18.8559 8.86914 17.9937C7.34584 16.9972 6.0141 15.4404 5.34339 13.8787C5.17094 13.4715 4.92184 12.662 4.86914 12.3123C4.85003 12.1925 4.82603 12.0535 4.81166 12.0009C4.75422 11.7374 4.7398 10.5542 4.79249 10.1278C5.05118 8.05837 6.3159 5.85957 7.81525 4.88233C8.63446 4.3458 9.39609 4.07754 10.5697 3.90987C10.8667 3.86676 12.3087 3.92424 12.6775 3.9961C13.8129 4.20688 14.7853 4.59969 15.729 5.22724C16.2273 5.55777 16.3661 5.67754 16.9937 6.30029C17.4776 6.78412 18.014 7.47394 18.3973 8.10633C19.1829 9.41406 19.8871 10.2093 20.7494 10.7698C21.4679 11.2344 22.4692 11.5554 23.4177 11.6224C24.4859 11.6991 26.1146 11.2775 26.7135 10.7698C27.1111 10.4344 27.3027 10.1901 27.4991 9.77334C27.8584 9.01167 27.7913 8.20209 27.3218 7.72309C27.1111 7.50752 26.6943 7.26795 26.4069 7.1961C26.129 7.12424 25.6164 7.16256 25.4153 7.27274C24.9842 7.4931 24.6871 8.03442 24.7542 8.47035C24.7925 8.7434 25.0176 9.0452 25.1901 9.06436C25.5638 9.10748 25.832 8.92065 25.9997 8.48951C26.0428 8.37933 26.1003 8.28831 26.1242 8.28831C26.2392 8.28831 26.4692 8.51346 26.5506 8.70508C26.6848 9.0212 26.6703 9.37095 26.5075 9.60089C26.3398 9.8452 26.2009 9.94101 25.8655 10.0608C25.0608 10.3434 24.414 10.1805 23.9877 9.5961C23.4943 8.92065 23.4703 7.98173 23.935 7.21526C24.2368 6.71706 24.5865 6.41526 25.123 6.1949C25.5063 6.03682 26.2536 5.99854 26.6512 6.11346C27.0057 6.2188 27.432 6.40089 27.6667 6.54939C27.9829 6.75538 28.3758 7.1961 28.5482 7.54101C28.9602 8.3698 28.9314 9.37574 28.462 10.3242C28.2033 10.8608 27.9973 11.1243 27.547 11.5171C26.5506 12.3889 24.4188 12.9111 22.8093 12.6763C22.1099 12.5709 21.7937 12.4895 21.2285 12.2644C19.7913 11.6943 18.6368 10.6452 17.6356 8.99251C17.2572 8.3698 17.1806 8.24999 16.8691 7.83322C16.6679 7.56012 16.1314 6.97095 15.9398 6.80807C15.8919 6.76496 15.8152 6.69785 15.7721 6.65478C15.5375 6.41526 14.8093 5.9458 14.3063 5.70149C12.7494 4.93981 11.0248 4.78173 9.56375 5.26077C9.1135 5.40927 8.92184 5.50029 8.48591 5.78297C7.25956 6.57813 6.14344 8.47514 5.89908 10.1805C5.61649 12.1829 6.44998 14.3386 8.13146 15.953C9.62603 17.3805 11.4369 18.3003 13.6404 18.7554C14.6799 18.9662 15.6237 19.0428 16.7973 19.0045C17.8368 18.9709 18.2153 18.9278 19.2884 18.7266C21.4823 18.305 23.3937 17.5338 25.1566 16.3602C26.723 15.3159 28.1746 13.7877 29.1805 12.135C29.4488 11.6943 30.038 10.4823 30.2871 9.86915C31.0392 7.98652 31.3506 7.35897 31.7673 6.86082C32.0644 6.4967 32.3805 6.30029 32.85 6.18053C33.7602 5.9458 34.6703 6.30987 34.9961 7.0428C35.226 7.55538 35.25 7.94336 35.0728 8.36017C34.9817 8.57095 34.6942 8.87753 34.4739 8.99251C34.2823 9.0931 33.7267 9.13143 33.5446 9.05478C33.3674 8.98292 33.1805 8.74819 33.1374 8.53746L33.0991 8.38412H33.3482C33.8033 8.38412 34.0667 8.17334 34.0667 7.80927C34.0667 7.51222 33.8176 7.23921 33.5398 7.22963C32.8309 7.1961 32.6488 7.34939 32.1266 8.40807C31.8057 9.06436 31.6332 9.46197 31.2308 10.4919C30.9913 11.1099 30.4356 12.2069 30.0572 12.8105C29.7218 13.3422 29.2524 14.0272 29.1805 14.0847C29.1662 14.0991 29.0464 14.2476 28.917 14.42C28.6057 14.8225 27.341 16.0919 26.8812 16.4656C24.553 18.3242 21.9805 19.426 18.7135 19.953C18.0877 20.0565 17.4617 20.0924 16.3467 20.0924C16.2754 20.0924 16.2022 20.0922 16.1266 20.092ZM14.4944 17.1731C13.6513 17.0294 13.2297 16.9288 12.674 16.742C10.7387 16.0905 9.38781 15.0701 8.37703 13.5085C8.06566 13.0294 7.90762 12.718 7.7926 12.3588C7.7447 12.215 7.68721 12.0474 7.66326 11.9899C7.57224 11.7504 7.51476 11.0174 7.53871 10.4905C7.57703 9.70007 7.7926 8.95755 8.15188 8.34917C8.36266 7.99947 8.91356 7.4342 9.26326 7.21384C9.63696 6.97432 10.298 6.72522 10.7339 6.66294C10.9304 6.6342 11.1459 6.60067 11.213 6.59109C11.4525 6.55755 11.6776 6.56235 12.0944 6.61504C12.6118 6.67731 13.1052 6.83061 13.6801 7.11324C14.6381 7.57791 15.3902 8.30127 16.08 9.42702C16.7986 10.5911 17.0142 10.8785 17.6513 11.5348C19.0932 13.0198 20.8082 13.8055 22.9878 13.9875C23.5722 14.0354 24.5303 13.9971 25.3351 13.8917C25.9195 13.815 25.9292 13.8198 25.68 14.0402C25.2489 14.433 24.4776 14.8258 23.8118 14.9935C23.3519 15.1085 23.2034 15.118 22.734 15.0749C20.7172 14.8785 19.1076 14.2413 17.6609 13.0773C17.2297 12.7276 16.4489 11.9372 16.195 11.5923C16.0849 11.4486 15.9698 11.2953 15.9411 11.257C15.8453 11.1372 15.3327 10.3516 15.3327 10.3228C15.3327 10.2845 14.8728 9.60426 14.6908 9.36474C14.2358 8.7851 13.704 8.34917 13.0908 8.06175C12.4681 7.76953 12.1519 7.69767 11.5483 7.70246C10.0489 7.71684 9.13871 8.42582 8.71715 9.89169C8.61656 10.251 8.63097 11.3432 8.74111 11.7073C8.86087 12.0953 9.019 12.4402 9.22973 12.7707C9.92439 13.8677 10.7675 14.6486 11.8453 15.2043C13.1722 15.8845 15.1363 16.2773 16.9615 16.2294L17.5124 16.215L17.3207 16.1C17.1004 15.9659 16.1854 15.324 16.1471 15.2809C16.1328 15.2666 15.9938 15.1516 15.8358 15.0318C15.6776 14.912 15.3663 14.6342 15.1459 14.4138C14.2932 13.5564 13.6561 12.7228 12.9136 11.4629C12.5303 10.8162 12.2525 10.4713 12.0417 10.3899C11.9794 10.3659 11.8261 10.3468 11.7064 10.3468C11.5195 10.3468 11.4669 10.3707 11.3088 10.5241C11.2082 10.6294 11.1363 10.7443 11.1412 10.8019C11.1747 11.1851 11.371 11.6114 11.7735 12.1815C12.1663 12.7372 12.674 13.3455 13.4214 14.1552C13.8333 14.6007 13.8956 14.6725 13.8956 14.7108C13.8956 14.7444 13.3735 14.6438 13.1531 14.5623C12.4249 14.2989 11.395 13.5228 10.8728 12.8378C10.7195 12.6414 10.4992 12.2822 10.3842 12.0474C9.89085 11.0605 9.92918 10.2797 10.504 9.7336C10.8058 9.44139 10.8968 9.38869 11.2273 9.28809C11.6058 9.17312 11.7687 9.17312 12.2333 9.29767C12.8944 9.47971 13.2154 9.79109 13.8956 10.9312C14.8968 12.6126 15.6872 13.5228 17.0812 14.6007C17.6992 15.0797 19.3328 15.9707 19.7878 16.0713C20.0848 16.1432 21.5172 16.6605 21.4788 16.6845C21.3495 16.7659 18.9878 17.2019 18.2932 17.2737C17.9013 17.3142 17.4145 17.3333 16.9081 17.3333C16.034 17.3333 15.1011 17.2763 14.4944 17.1731ZM6.22332 22.4242C5.03045 21.629 3.89038 20.6277 3.04722 19.6409C2.83644 19.3918 2.64962 19.1763 2.63524 19.1619C2.49153 19.0325 1.5095 17.5715 1.31788 17.2026C1.26523 17.0972 1.25081 16.8002 1.24602 15.7559C1.23644 14.3092 1.23644 14.3475 1.26523 14.3762C1.27477 14.3858 1.39457 14.6732 1.52387 15.0182C2.08918 16.4697 2.71673 17.5236 3.79932 18.8266C4.29273 19.4157 4.48919 19.6218 4.98255 20.0673C6.1323 21.0924 7.23884 21.8445 8.64722 22.5583L9.22207 22.8458L8.04363 22.8505H6.86044L6.22332 22.4242ZM36.6694 15.2675C37.1485 15.095 37.503 14.913 37.6132 14.7837C37.6803 14.6974 37.7569 14.6831 37.7569 14.7501C37.7569 14.8699 37.4981 15.6555 37.388 15.8711C37.23 16.1873 36.8467 16.6902 36.4203 17.1453L36.0898 17.495L35.8359 17.4376C35.5293 17.3609 35.0551 17.1788 34.8922 17.0735L34.7676 16.9921L34.8874 16.901C35.2036 16.6519 35.7257 16.0819 35.9413 15.7609C36.0754 15.5645 36.1856 15.4064 36.1904 15.416C36.1907 15.4166 36.1919 15.4169 36.1938 15.4169C36.2229 15.4169 36.4273 15.3527 36.6694 15.2675ZM30.4177 19.6646C30.1398 19.4251 29.8093 19.1568 29.6895 19.0658C29.565 18.9796 29.474 18.8981 29.4788 18.8885C29.4883 18.879 29.8141 18.8215 30.2069 18.7544C31.3422 18.5628 32.1997 18.3089 33.0572 17.9161C33.335 17.7915 33.5889 17.6861 33.6273 17.6814C33.6608 17.6766 33.7901 17.758 33.9147 17.8634C34.1829 18.0837 34.4464 18.2514 34.7338 18.3712C34.8537 18.4191 34.9686 18.4766 34.9973 18.5006C35.0549 18.5484 34.3123 19.3053 34.207 19.3053C34.1638 19.3053 34.0249 19.2382 33.8955 19.1568L33.6608 19.0083L33.4165 19.0897C33.2871 19.1376 33.1578 19.1903 33.1291 19.2095C33.062 19.2622 32.2812 19.4969 32.1806 19.4969C32.1374 19.4969 32.0991 19.5113 32.0991 19.5305C32.0991 19.5879 32.559 19.9137 32.8992 20.1053C33.0668 20.1963 33.2009 20.2873 33.2009 20.3066C33.2009 20.3832 32.5016 21.0778 32.4297 21.0778C32.262 21.0778 31.1698 20.3113 30.4177 19.6646ZM29.8126 22.4377C29.6593 22.3083 29.5252 22.1934 29.5108 22.179C29.4965 22.1647 29.3048 22.0113 29.0796 21.8389C27.9013 20.9431 26.7707 20.3538 25.6449 20.0473C24.8881 19.846 24.7396 19.7981 24.6725 19.7598C24.6437 19.7407 24.8641 19.6114 25.1611 19.4772C25.4581 19.3383 25.9084 19.1035 26.1575 18.955C26.4066 18.8065 26.6413 18.6964 26.6749 18.7107C26.7131 18.7203 27.0533 18.7443 27.4317 18.7634C27.815 18.7778 28.1359 18.8113 28.1503 18.8305C28.1647 18.8544 27.9875 18.9934 27.7623 19.1419C27.5371 19.2904 27.3551 19.4149 27.3551 19.4245C27.3551 19.4341 27.585 19.5635 27.8629 19.7119C28.9312 20.282 30.1048 21.1059 31.0102 21.9203C31.288 22.1694 31.2928 22.1598 30.742 22.4425C30.4773 22.576 30.3265 22.643 30.2017 22.6431C30.0757 22.6431 29.9762 22.5748 29.8126 22.4377ZM3.56961 22.8418C2.76487 22.8274 2.75045 22.8274 2.43428 22.6741C1.89776 22.4202 1.43308 21.8933 1.299 21.3903C1.26063 21.237 1.22235 20.2023 1.24147 19.8094C1.24626 19.6993 1.25589 19.7088 1.55764 20.1448C2.075 20.8825 2.875 21.6921 3.77086 22.3819C3.99117 22.5496 4.21632 22.722 4.27385 22.7699C4.35232 22.8306 4.35903 22.846 4.03289 22.846C3.92113 22.846 3.77019 22.8442 3.56961 22.8418Z" fill="#3640E0"/>
</svg>
