<svg width="18" height="14" viewBox="0 0 18 14" fill="none" xmlns="http://www.w3.org/2000/svg">
<path fill-rule="evenodd" clip-rule="evenodd" d="M4.41603 2.30057C5.77654 1.24905 7.36385 0.541748 9 0.541748C10.461 0.541748 11.8838 1.10595 13.1402 1.97596L14.3914 0.724806C14.6355 0.480729 15.0312 0.480729 15.2753 0.724806C15.5194 0.968884 15.5194 1.36461 15.2753 1.60869L13.6512 3.23274C13.6469 3.23715 13.6426 3.24149 13.6382 3.24575L11.2992 5.58476C11.299 5.58496 11.2988 5.58516 11.2986 5.58536C11.2984 5.58556 11.2982 5.58576 11.298 5.58596L7.58681 9.29716C7.58658 9.29739 7.58635 9.29762 7.58611 9.29786C7.58588 9.29809 7.58565 9.29832 7.58541 9.29856L5.25792 11.626C5.24493 11.6403 5.2314 11.6538 5.21739 11.6666L3.60861 13.2754C3.36454 13.5194 2.96881 13.5194 2.72473 13.2754C2.48065 13.0313 2.48065 12.6356 2.72473 12.3915L3.86838 11.2478C2.73758 10.2533 1.76239 9.00711 1.0486 7.68743L1.04829 7.68684C0.817522 7.25912 0.817522 6.74188 1.04829 6.31415L1.04853 6.3137C1.87482 4.78514 3.0521 3.35473 4.41603 2.30057ZM4.7543 10.3619L6.30276 8.81345C5.45116 7.54965 5.58432 5.81939 6.70223 4.70147C7.82014 3.58356 9.55041 3.4504 10.8142 4.302L12.2398 2.87637C11.1878 2.18759 10.0763 1.79175 9 1.79175C7.72366 1.79175 6.39847 2.3482 5.18044 3.2896C3.96583 4.22835 2.89852 5.52002 2.14815 6.90813L1.59835 6.61092L2.14839 6.90768C2.11753 6.96488 2.11749 7.03585 2.14827 7.09309C2.80976 8.31599 3.71708 9.46384 4.7543 10.3619ZM9.90233 5.21387C9.1521 4.83493 8.21271 4.95876 7.58611 5.58536C6.95952 6.21195 6.83569 7.15135 7.21463 7.90157L9.90233 5.21387ZM14.4932 3.95901C14.7557 3.73482 15.1502 3.76586 15.3744 4.02833C15.9767 4.73346 16.514 5.50459 16.9514 6.31364L16.9517 6.31415C17.1825 6.74188 17.1825 7.25912 16.9517 7.68684L16.9514 7.68736C16.1251 9.21549 14.9479 10.6457 13.584 11.6997C12.2235 12.7511 10.6362 13.4584 9 13.4584C8.20993 13.4584 7.4309 13.2914 6.68774 13.0038C6.36583 12.8792 6.20588 12.5172 6.33048 12.1953C6.45507 11.8734 6.81703 11.7135 7.13894 11.8381C7.76078 12.0787 8.38675 12.2084 9 12.2084C10.2764 12.2084 11.6015 11.652 12.8196 10.7107C14.0342 9.77199 15.1015 8.48051 15.8519 7.0928C15.8825 7.03572 15.8824 6.96503 15.8518 6.90797C15.4593 6.1821 14.9733 5.4833 14.4239 4.84017C14.1997 4.5777 14.2308 4.18319 14.4932 3.95901Z" fill="#ACB3B8"/>
</svg>
