<svg width="608" height="432" viewBox="0 0 608 432" fill="none" xmlns="http://www.w3.org/2000/svg">
<g filter="url(#filter0_d_462_4178)">
<g clip-path="url(#clip0_462_4178)">
<rect x="60" y="56" width="488" height="312" rx="17" fill="white"/>
<path d="M92.9092 113H94.4404V109.705L95.4453 108.543L98.7061 113H100.6L96.5391 107.497L100.278 103.136H98.46L94.4814 107.859H94.4404V103.136H92.9092V113ZM103.32 113.13C104.271 113.13 105.104 112.638 105.521 111.865H105.549V113H107.032V108.044C107.032 106.602 105.918 105.672 104.161 105.672C102.391 105.672 101.317 106.622 101.215 107.859L101.208 107.935H102.603L102.616 107.873C102.739 107.299 103.266 106.896 104.12 106.896C105.036 106.896 105.549 107.374 105.549 108.167V108.707L103.594 108.823C101.892 108.926 100.921 109.691 100.921 110.942V110.956C100.921 112.248 101.885 113.13 103.32 113.13ZM102.411 110.922V110.908C102.411 110.3 102.903 109.91 103.792 109.855L105.549 109.746V110.307C105.549 111.243 104.763 111.947 103.724 111.947C102.931 111.947 102.411 111.551 102.411 110.922ZM108.468 113H109.944V108.714C109.944 107.641 110.532 107.019 111.482 107.019C111.77 107.019 112.029 107.053 112.146 107.101V105.727C112.029 105.706 111.845 105.672 111.633 105.672C110.812 105.672 110.211 106.198 109.979 107.039H109.944V105.809H108.468V113ZM115.584 113.144C115.885 113.144 116.165 113.109 116.336 113.082V111.94C116.227 111.954 116.097 111.968 115.939 111.968C115.317 111.968 114.989 111.749 114.989 111.018V106.984H116.336V105.809H114.989V103.936H113.479V105.809H112.446V106.984H113.479V111.106C113.479 112.542 114.162 113.144 115.584 113.144ZM117.621 113H119.098V105.809H117.621V113ZM120.622 113H122.099V108.81C122.099 107.688 122.769 106.937 123.808 106.937C124.833 106.937 125.339 107.545 125.339 108.625V113H126.822V108.345C126.822 106.69 125.913 105.672 124.334 105.672C123.247 105.672 122.509 106.164 122.133 106.896H122.099V105.809H120.622V113ZM131.095 113H132.571V108.81C132.571 107.688 133.241 106.937 134.28 106.937C135.306 106.937 135.812 107.545 135.812 108.625V113H137.295V108.345C137.295 106.69 136.386 105.672 134.807 105.672C133.72 105.672 132.981 106.164 132.605 106.896H132.571V105.809H131.095V113ZM140.474 104.708C140.918 104.708 141.26 104.359 141.26 103.922C141.26 103.491 140.918 103.143 140.474 103.143C140.029 103.143 139.674 103.491 139.674 103.922C139.674 104.359 140.029 104.708 140.474 104.708ZM143.16 104.708C143.611 104.708 143.96 104.359 143.96 103.922C143.96 103.491 143.611 103.143 143.16 103.143C142.723 103.143 142.374 103.491 142.374 103.922C142.374 104.359 142.723 104.708 143.16 104.708ZM141.813 113.144C143.871 113.144 145.225 111.722 145.225 109.404V109.391C145.225 107.087 143.857 105.672 141.807 105.672C139.763 105.672 138.402 107.094 138.402 109.391V109.404C138.402 111.715 139.749 113.144 141.813 113.144ZM141.82 111.906C140.665 111.906 139.913 110.997 139.913 109.404V109.391C139.913 107.818 140.672 106.909 141.807 106.909C142.962 106.909 143.714 107.818 143.714 109.391V109.404C143.714 110.99 142.976 111.906 141.82 111.906ZM146.366 113H147.843V108.557C147.843 107.627 148.465 106.937 149.34 106.937C150.174 106.937 150.7 107.47 150.7 108.304V113H152.149V108.502C152.149 107.593 152.758 106.937 153.633 106.937C154.508 106.937 155.007 107.477 155.007 108.413V113H156.49V108.058C156.49 106.615 155.561 105.672 154.139 105.672C153.113 105.672 152.266 106.212 151.896 107.087H151.862C151.575 106.185 150.851 105.672 149.859 105.672C148.916 105.672 148.185 106.171 147.877 106.923H147.843V105.809H146.366V113ZM157.919 113H159.396V108.714C159.396 107.641 159.983 107.019 160.934 107.019C161.221 107.019 161.48 107.053 161.597 107.101V105.727C161.48 105.706 161.296 105.672 161.084 105.672C160.264 105.672 159.662 106.198 159.43 107.039H159.396V105.809H157.919V113ZM165.432 105.672C163.682 105.672 162.574 106.711 162.349 107.853L162.328 107.921H163.736L163.757 107.866C163.935 107.333 164.522 106.882 165.397 106.882C166.573 106.882 167.318 107.675 167.346 109.028H162.253V109.527C162.253 111.694 163.49 113.144 165.507 113.144C167.523 113.144 168.822 111.64 168.822 109.391V109.384C168.822 107.107 167.544 105.672 165.432 105.672ZM165.5 111.934C164.536 111.934 163.832 111.325 163.709 110.074H167.325C167.188 111.284 166.457 111.934 165.5 111.934ZM172.726 113.144C174.421 113.144 175.651 112.241 175.651 110.929V110.922C175.651 109.89 175.091 109.309 173.621 108.967L172.452 108.7C171.68 108.516 171.386 108.215 171.386 107.771V107.764C171.386 107.189 171.885 106.813 172.678 106.813C173.512 106.813 174.004 107.251 174.093 107.88L174.1 107.928H175.487L175.48 107.846C175.405 106.622 174.38 105.672 172.678 105.672C171.023 105.672 169.902 106.554 169.902 107.839V107.846C169.902 108.892 170.579 109.548 171.946 109.862L173.122 110.129C173.895 110.313 174.154 110.58 174.154 111.045V111.052C174.154 111.633 173.621 112.002 172.732 112.002C171.823 112.002 171.331 111.612 171.194 110.949L171.181 110.881H169.718L169.725 110.942C169.875 112.255 170.928 113.144 172.726 113.144ZM177.6 104.701C178.085 104.701 178.461 104.318 178.461 103.854C178.461 103.382 178.085 102.999 177.6 102.999C177.121 102.999 176.738 103.382 176.738 103.854C176.738 104.318 177.121 104.701 177.6 104.701ZM176.861 113H178.338V105.809H176.861V113Z" fill="#2D3131"/>
<rect x="92.5" y="128.5" width="423" height="47" rx="5.5" fill="white"/>
<path d="M104.308 157L107.664 152.058V152.01L104.349 147.136H105.832L108.464 151.101H108.512L111.178 147.136H112.579L109.175 152.071V152.112L112.504 157H111.027L108.409 153.069H108.361L105.702 157H104.308ZM113.194 157L116.551 152.058V152.01L113.235 147.136H114.719L117.351 151.101H117.398L120.064 147.136H121.466L118.062 152.071V152.112L121.391 157H119.914L117.296 153.069H117.248L114.589 157H113.194ZM122.081 157L125.438 152.058V152.01L122.122 147.136H123.605L126.237 151.101H126.285L128.951 147.136H130.353L126.948 152.071V152.112L130.277 157H128.801L126.183 153.069H126.135L123.476 157H122.081ZM130.968 157L134.324 152.058V152.01L131.009 147.136H132.492L135.124 151.101H135.172L137.838 147.136H139.239L135.835 152.071V152.112L139.164 157H137.688L135.069 153.069H135.021L132.362 157H130.968ZM142.726 157L146.082 152.058V152.01L142.767 147.136H144.25L146.882 151.101H146.93L149.596 147.136H150.997L147.593 152.071V152.112L150.922 157H149.445L146.827 153.069H146.779L144.12 157H142.726ZM151.612 157L154.969 152.058V152.01L151.653 147.136H153.137L155.769 151.101H155.816L158.482 147.136H159.884L156.479 152.071V152.112L159.809 157H158.332L155.714 153.069H155.666L153.007 157H151.612ZM160.499 157L163.855 152.058V152.01L160.54 147.136H162.023L164.655 151.101H164.703L167.369 147.136H168.771L165.366 152.071V152.112L168.695 157H167.219L164.601 153.069H164.553L161.894 157H160.499ZM169.386 157L172.742 152.058V152.01L169.427 147.136H170.91L173.542 151.101H173.59L176.256 147.136H177.657L174.253 152.071V152.112L177.582 157H176.105L173.487 153.069H173.439L170.78 157H169.386ZM181.144 157L184.5 152.058V152.01L181.185 147.136H182.668L185.3 151.101H185.348L188.014 147.136H189.415L186.011 152.071V152.112L189.34 157H187.863L185.245 153.069H185.197L182.538 157H181.144ZM190.03 157L193.387 152.058V152.01L190.071 147.136H191.555L194.187 151.101H194.234L196.9 147.136H198.302L194.897 152.071V152.112L198.227 157H196.75L194.132 153.069H194.084L191.425 157H190.03ZM198.917 157L202.273 152.058V152.01L198.958 147.136H200.441L203.073 151.101H203.121L205.787 147.136H207.188L203.784 152.071V152.112L207.113 157H205.637L203.019 153.069H202.971L200.312 157H198.917ZM207.804 157L211.16 152.058V152.01L207.845 147.136H209.328L211.96 151.101H212.008L214.674 147.136H216.075L212.671 152.071V152.112L216 157H214.523L211.905 153.069H211.857L209.198 157H207.804ZM219.562 157L222.918 152.058V152.01L219.603 147.136H221.086L223.718 151.101H223.766L226.432 147.136H227.833L224.429 152.071V152.112L227.758 157H226.281L223.663 153.069H223.615L220.956 157H219.562ZM228.448 157L231.805 152.058V152.01L228.489 147.136H229.973L232.604 151.101H232.652L235.318 147.136H236.72L233.315 152.071V152.112L236.645 157H235.168L232.55 153.069H232.502L229.843 157H228.448ZM237.335 157L240.691 152.058V152.01L237.376 147.136H238.859L241.491 151.101H241.539L244.205 147.136H245.606L242.202 152.071V152.112L245.531 157H244.055L241.437 153.069H241.389L238.729 157H237.335ZM246.222 157L249.578 152.058V152.01L246.263 147.136H247.746L250.378 151.101H250.426L253.092 147.136H254.493L251.089 152.071V152.112L254.418 157H252.941L250.323 153.069H250.275L247.616 157H246.222ZM255.108 157L258.465 152.058V152.01L255.149 147.136H256.633L259.265 151.101H259.312L261.979 147.136H263.38L259.976 152.071V152.112L263.305 157H261.828L259.21 153.069H259.162L256.503 157H255.108Z" fill="#586268"/>
<rect x="92.5" y="128.5" width="423" height="47" rx="5.5" stroke="#E6ECFA"/>
<path d="M92.9092 209H96.8672C98.9658 209 100.23 207.947 100.23 206.218V206.204C100.23 204.905 99.3213 203.941 97.9199 203.798V203.771C98.959 203.62 99.7451 202.656 99.7451 201.617V201.604C99.7451 200.113 98.5967 199.136 96.8467 199.136H92.9092V209ZM96.4775 200.387C97.585 200.387 98.2207 200.886 98.2207 201.788V201.802C98.2207 202.793 97.4893 203.34 96.1357 203.34H94.4404V200.387H96.4775ZM96.4502 204.522C97.9131 204.522 98.665 205.069 98.665 206.129V206.143C98.665 207.195 97.9268 207.749 96.5527 207.749H94.4404V204.522H96.4502ZM102.172 200.701C102.657 200.701 103.033 200.318 103.033 199.854C103.033 199.382 102.657 198.999 102.172 198.999C101.693 198.999 101.311 199.382 101.311 199.854C101.311 200.318 101.693 200.701 102.172 200.701ZM101.434 209H102.91V201.809H101.434V209ZM106.957 209.144C107.258 209.144 107.538 209.109 107.709 209.082V207.94C107.6 207.954 107.47 207.968 107.312 207.968C106.69 207.968 106.362 207.749 106.362 207.018V202.984H107.709V201.809H106.362V199.936H104.852V201.809H103.819V202.984H104.852V207.106C104.852 208.542 105.535 209.144 106.957 209.144ZM108.933 209H110.409V204.557C110.409 203.627 111.031 202.937 111.906 202.937C112.74 202.937 113.267 203.47 113.267 204.304V209H114.716V204.502C114.716 203.593 115.324 202.937 116.199 202.937C117.074 202.937 117.573 203.477 117.573 204.413V209H119.057V204.058C119.057 202.615 118.127 201.672 116.705 201.672C115.68 201.672 114.832 202.212 114.463 203.087H114.429C114.142 202.185 113.417 201.672 112.426 201.672C111.482 201.672 110.751 202.171 110.443 202.923H110.409V201.809H108.933V209ZM123.404 201.672C121.654 201.672 120.547 202.711 120.321 203.853L120.301 203.921H121.709L121.729 203.866C121.907 203.333 122.495 202.882 123.37 202.882C124.546 202.882 125.291 203.675 125.318 205.028H120.226V205.527C120.226 207.694 121.463 209.144 123.479 209.144C125.496 209.144 126.795 207.64 126.795 205.391V205.384C126.795 203.107 125.517 201.672 123.404 201.672ZM123.473 207.934C122.509 207.934 121.805 207.325 121.682 206.074H125.298C125.161 207.284 124.43 207.934 123.473 207.934ZM133.371 209.144C133.672 209.144 133.952 209.109 134.123 209.082V207.94C134.014 207.954 133.884 207.968 133.727 207.968C133.104 207.968 132.776 207.749 132.776 207.018V202.984H134.123V201.809H132.776V199.936H131.266V201.809H130.233V202.984H131.266V207.106C131.266 208.542 131.949 209.144 133.371 209.144ZM137.35 209.13C138.3 209.13 139.134 208.638 139.551 207.865H139.578V209H141.062V204.044C141.062 202.602 139.947 201.672 138.19 201.672C136.42 201.672 135.347 202.622 135.244 203.859L135.237 203.935H136.632L136.646 203.873C136.769 203.299 137.295 202.896 138.149 202.896C139.065 202.896 139.578 203.374 139.578 204.167V204.707L137.623 204.823C135.921 204.926 134.95 205.691 134.95 206.942V206.956C134.95 208.248 135.914 209.13 137.35 209.13ZM136.44 206.922V206.908C136.44 206.3 136.933 205.91 137.821 205.855L139.578 205.746V206.307C139.578 207.243 138.792 207.947 137.753 207.947C136.96 207.947 136.44 207.551 136.44 206.922ZM142.497 209H143.974V204.714C143.974 203.641 144.562 203.019 145.512 203.019C145.799 203.019 146.059 203.053 146.175 203.101V201.727C146.059 201.706 145.874 201.672 145.662 201.672C144.842 201.672 144.24 202.198 144.008 203.039H143.974V201.809H142.497V209ZM147.891 200.701C148.376 200.701 148.752 200.318 148.752 199.854C148.752 199.382 148.376 198.999 147.891 198.999C147.412 198.999 147.029 199.382 147.029 199.854C147.029 200.318 147.412 200.701 147.891 200.701ZM147.152 209H148.629V201.809H147.152V209ZM149.613 209H151.213L152.806 206.354H152.84L154.433 209H156.06L153.722 205.363L156.087 201.809H154.453L152.908 204.413H152.874L151.309 201.809H149.647L151.992 205.411L149.613 209ZM157.816 200.701C158.302 200.701 158.678 200.318 158.678 199.854C158.678 199.382 158.302 198.999 157.816 198.999C157.338 198.999 156.955 199.382 156.955 199.854C156.955 200.318 157.338 200.701 157.816 200.701ZM157.078 209H158.555V201.809H157.078V209Z" fill="#2D3131"/>
<rect x="92.5" y="224.5" width="203" height="47" rx="5.5" fill="white"/>
<path d="M107.315 253V244.441H107.288L104.677 246.321V245.022L107.302 243.136H108.505V253H107.315ZM114.459 253.164C113.315 253.164 112.422 252.708 111.779 251.797C111.141 250.881 110.822 249.637 110.822 248.064C110.822 246.506 111.144 245.269 111.786 244.353C112.433 243.432 113.324 242.972 114.459 242.972C115.594 242.972 116.48 243.43 117.118 244.346C117.761 245.257 118.082 246.494 118.082 248.058C118.082 249.63 117.763 250.874 117.125 251.79C116.487 252.706 115.598 253.164 114.459 253.164ZM112.688 251.011C113.108 251.731 113.698 252.091 114.459 252.091C115.22 252.091 115.808 251.733 116.223 251.018C116.637 250.298 116.845 249.313 116.845 248.064C116.845 246.834 116.635 245.859 116.216 245.139C115.797 244.414 115.211 244.052 114.459 244.052C113.707 244.052 113.119 244.414 112.695 245.139C112.271 245.863 112.06 246.836 112.06 248.058C112.06 249.306 112.269 250.291 112.688 251.011ZM119.716 255.099H118.697L122.19 243.136H123.209L119.716 255.099ZM123.947 245.979C123.947 245.118 124.257 244.403 124.877 243.833C125.497 243.259 126.271 242.972 127.201 242.972C128.081 242.972 128.826 243.234 129.437 243.758C130.047 244.282 130.353 244.922 130.353 245.679C130.353 246.226 130.202 246.752 129.901 247.258C129.601 247.764 129.035 248.445 128.206 249.302L125.711 251.879V251.906H130.517V253H124.009V252.152L127.481 248.495C128.142 247.798 128.58 247.269 128.794 246.909C129.013 246.549 129.122 246.164 129.122 245.754C129.122 245.28 128.931 244.877 128.548 244.544C128.17 244.211 127.709 244.045 127.167 244.045C126.588 244.045 126.105 244.229 125.718 244.599C125.33 244.968 125.137 245.428 125.137 245.979V245.986H123.947V245.979ZM135.329 253.164C134.386 253.164 133.597 252.897 132.964 252.364C132.335 251.831 131.995 251.145 131.945 250.307H133.155C133.21 250.831 133.44 251.259 133.846 251.592C134.251 251.92 134.75 252.084 135.343 252.084C136.013 252.084 136.557 251.874 136.977 251.455C137.4 251.036 137.612 250.493 137.612 249.828C137.612 249.163 137.4 248.618 136.977 248.194C136.557 247.766 136.02 247.552 135.363 247.552C134.903 247.552 134.486 247.65 134.112 247.846C133.739 248.042 133.451 248.313 133.251 248.659H132.096L132.636 243.136H138.282V244.229H133.647L133.347 247.442H133.374C133.597 247.146 133.903 246.914 134.29 246.745C134.682 246.576 135.113 246.492 135.582 246.492C136.53 246.492 137.309 246.804 137.92 247.429C138.535 248.049 138.843 248.837 138.843 249.794C138.843 250.783 138.515 251.592 137.858 252.221C137.202 252.85 136.359 253.164 135.329 253.164Z" fill="#586268"/>
<path fill-rule="evenodd" clip-rule="evenodd" d="M277.109 242.975C277.353 243.219 277.353 243.614 277.109 243.858L267.942 253.025C267.698 253.269 267.302 253.269 267.058 253.025L262.891 248.858C262.647 248.614 262.647 248.219 262.891 247.975C263.135 247.73 263.531 247.73 263.775 247.975L267.5 251.699L276.225 242.975C276.469 242.73 276.864 242.73 277.109 242.975Z" fill="#00B374"/>
<rect x="92.5" y="224.5" width="203" height="47" rx="5.5" stroke="#E6ECFA"/>
<path d="M317.127 209.164C319.308 209.164 320.941 207.845 321.249 205.883L321.256 205.814H319.738L319.718 205.876C319.349 207.127 318.439 207.811 317.127 207.811C315.302 207.811 314.119 206.348 314.119 204.064V204.058C314.119 201.774 315.295 200.325 317.127 200.325C318.453 200.325 319.369 201.029 319.697 202.185L319.738 202.321H321.256L321.242 202.26C320.935 200.312 319.301 198.972 317.127 198.972C314.331 198.972 312.554 200.927 312.554 204.058V204.064C312.554 207.195 314.331 209.164 317.127 209.164ZM325.371 209H327.06L330.573 199.136H328.926L326.232 207.298H326.198L323.505 199.136H321.857L325.371 209ZM334.449 209H336.138L339.651 199.136H338.004L335.311 207.298H335.276L332.583 199.136H330.936L334.449 209Z" fill="#2D3131"/>
<rect x="312.5" y="224.5" width="203" height="47" rx="5.5" fill="white"/>
<path d="M327.315 253V244.441H327.288L324.677 246.321V245.022L327.302 243.136H328.505V253H327.315ZM330.945 245.979C330.945 245.118 331.255 244.403 331.875 243.833C332.495 243.259 333.27 242.972 334.199 242.972C335.079 242.972 335.824 243.234 336.435 243.758C337.045 244.282 337.351 244.922 337.351 245.679C337.351 246.226 337.2 246.752 336.899 247.258C336.599 247.764 336.034 248.445 335.204 249.302L332.709 251.879V251.906H337.515V253H331.007V252.152L334.479 248.495C335.14 247.798 335.578 247.269 335.792 246.909C336.011 246.549 336.12 246.164 336.12 245.754C336.12 245.28 335.929 244.877 335.546 244.544C335.168 244.211 334.707 244.045 334.165 244.045C333.586 244.045 333.103 244.229 332.716 244.599C332.328 244.968 332.135 245.428 332.135 245.979V245.986H330.945V245.979ZM340.946 248.447V247.408H342.129C342.694 247.408 343.157 247.246 343.517 246.923C343.877 246.595 344.057 246.18 344.057 245.679C344.057 245.177 343.89 244.779 343.558 244.482C343.225 244.186 342.753 244.038 342.143 244.038C341.577 244.038 341.117 244.188 340.762 244.489C340.406 244.79 340.201 245.2 340.146 245.72H338.964C339.032 244.881 339.356 244.214 339.935 243.717C340.518 243.22 341.272 242.972 342.197 242.972C343.086 242.972 343.824 243.211 344.412 243.689C345 244.168 345.294 244.776 345.294 245.515C345.294 246.13 345.112 246.647 344.747 247.066C344.382 247.486 343.89 247.75 343.271 247.859V247.887C344.018 247.932 344.613 248.172 345.055 248.604C345.497 249.033 345.718 249.593 345.718 250.286C345.718 250.838 345.563 251.334 345.253 251.776C344.943 252.218 344.524 252.56 343.995 252.802C343.466 253.043 342.881 253.164 342.238 253.164C341.217 253.164 340.395 252.909 339.771 252.398C339.146 251.888 338.811 251.218 338.766 250.389H339.948C340.003 250.904 340.233 251.318 340.639 251.633C341.044 251.943 341.573 252.098 342.225 252.098C342.876 252.098 343.412 251.931 343.831 251.599C344.255 251.266 344.467 250.842 344.467 250.327C344.467 249.748 344.262 249.29 343.852 248.953C343.446 248.616 342.89 248.447 342.184 248.447H340.946Z" fill="#586268"/>
<path fill-rule="evenodd" clip-rule="evenodd" d="M497.109 242.975C497.353 243.219 497.353 243.614 497.109 243.858L487.942 253.025C487.698 253.269 487.302 253.269 487.058 253.025L482.891 248.858C482.647 248.614 482.647 248.219 482.891 247.975C483.135 247.73 483.531 247.73 483.775 247.975L487.5 251.699L496.225 242.975C496.469 242.73 496.864 242.73 497.109 242.975Z" fill="#00B374"/>
<rect x="312.5" y="224.5" width="203" height="47" rx="5.5" stroke="#E6ECFA"/>
<rect x="92" y="288" width="424" height="48" rx="8" fill="#0D52FF"/>
<path d="M271.375 317C272.824 317 274 315.824 274 314.375V309.125C274 307.676 272.824 306.5 271.375 306.5H269.078C268.887 306.5 268.75 306.664 268.75 306.828V307.484C268.75 307.676 268.887 307.812 269.078 307.812H271.375C272.086 307.812 272.688 308.414 272.688 309.125V314.375C272.688 315.113 272.086 315.688 271.375 315.688H269.078C268.887 315.688 268.75 315.852 268.75 316.016V316.672C268.75 316.863 268.887 317 269.078 317H271.375ZM264.566 307.047L264.02 307.594C263.883 307.703 263.883 307.922 264.02 308.059L267.109 311.039H260.328C260.137 311.039 260 311.203 260 311.367V312.133C260 312.324 260.137 312.461 260.328 312.461H267.109L264.02 315.469C263.883 315.605 263.883 315.824 264.02 315.934L264.566 316.48C264.676 316.617 264.895 316.617 265.031 316.48L269.516 311.996C269.652 311.859 269.652 311.668 269.516 311.531L265.031 307.047C264.895 306.91 264.676 306.91 264.566 307.047Z" fill="#F8FAFC"/>
<path d="M283.039 318H287.016C290.375 318 292.352 315.906 292.352 312.344V312.328C292.352 308.781 290.359 306.727 287.016 306.727H283.039V318ZM284.789 316.484V308.234H286.852C289.227 308.234 290.562 309.695 290.562 312.344V312.359C290.562 315.023 289.242 316.484 286.852 316.484H284.789ZM296.219 318.148C297.305 318.148 298.258 317.586 298.734 316.703H298.766V318H300.461V312.336C300.461 310.688 299.188 309.625 297.18 309.625C295.156 309.625 293.93 310.711 293.812 312.125L293.805 312.211H295.398L295.414 312.141C295.555 311.484 296.156 311.023 297.133 311.023C298.18 311.023 298.766 311.57 298.766 312.477V313.094L296.531 313.227C294.586 313.344 293.477 314.219 293.477 315.648V315.664C293.477 317.141 294.578 318.148 296.219 318.148ZM295.18 315.625V315.609C295.18 314.914 295.742 314.469 296.758 314.406L298.766 314.281V314.922C298.766 315.992 297.867 316.797 296.68 316.797C295.773 316.797 295.18 316.344 295.18 315.625ZM304.344 318H306.156L309.102 309.781H307.344L305.281 316.352H305.242L303.18 309.781H301.383L304.344 318ZM312.312 318.148C313.398 318.148 314.352 317.586 314.828 316.703H314.859V318H316.555V312.336C316.555 310.688 315.281 309.625 313.273 309.625C311.25 309.625 310.023 310.711 309.906 312.125L309.898 312.211H311.492L311.508 312.141C311.648 311.484 312.25 311.023 313.227 311.023C314.273 311.023 314.859 311.57 314.859 312.477V313.094L312.625 313.227C310.68 313.344 309.57 314.219 309.57 315.648V315.664C309.57 317.141 310.672 318.148 312.312 318.148ZM311.273 315.625V315.609C311.273 314.914 311.836 314.469 312.852 314.406L314.859 314.281V314.922C314.859 315.992 313.961 316.797 312.773 316.797C311.867 316.797 311.273 316.344 311.273 315.625ZM318.195 318H319.883V312.922C319.883 311.859 320.594 311.07 321.594 311.07C322.547 311.07 323.148 311.68 323.148 312.633V318H324.805V312.859C324.805 311.82 325.5 311.07 326.5 311.07C327.5 311.07 328.07 311.688 328.07 312.758V318H329.766V312.352C329.766 310.703 328.703 309.625 327.078 309.625C325.906 309.625 324.938 310.242 324.516 311.242H324.477C324.148 310.211 323.32 309.625 322.188 309.625C321.109 309.625 320.273 310.195 319.922 311.055H319.883V309.781H318.195V318ZM338.156 318.164C340.148 318.164 341.414 316.977 341.68 315.672L341.695 315.586H340.094L340.07 315.648C339.859 316.266 339.195 316.781 338.195 316.781C336.852 316.781 336 315.875 335.969 314.32H341.789V313.75C341.789 311.281 340.375 309.625 338.07 309.625C335.766 309.625 334.281 311.344 334.281 313.914V313.922C334.281 316.516 335.742 318.164 338.156 318.164ZM338.078 311.008C339.18 311.008 339.977 311.703 340.117 313.125H335.992C336.141 311.75 336.984 311.008 338.078 311.008ZM345.984 318.164C346.328 318.164 346.648 318.125 346.844 318.094V316.789C346.719 316.805 346.57 316.82 346.391 316.82C345.68 316.82 345.305 316.57 345.305 315.734V311.125H346.844V309.781H345.305V307.641H343.578V309.781H342.398V311.125H343.578V315.836C343.578 317.477 344.359 318.164 345.984 318.164Z" fill="#F8FAFC"/>
</g>
</g>
<defs>
<filter id="filter0_d_462_4178" x="0" y="0" width="608" height="432" filterUnits="userSpaceOnUse" color-interpolation-filters="sRGB">
<feFlood flood-opacity="0" result="BackgroundImageFix"/>
<feColorMatrix in="SourceAlpha" type="matrix" values="0 0 0 0 0 0 0 0 0 0 0 0 0 0 0 0 0 0 127 0" result="hardAlpha"/>
<feOffset dy="4"/>
<feGaussianBlur stdDeviation="30"/>
<feComposite in2="hardAlpha" operator="out"/>
<feColorMatrix type="matrix" values="0 0 0 0 0.211765 0 0 0 0 0.25098 0 0 0 0 0.878431 0 0 0 0.08 0"/>
<feBlend mode="normal" in2="BackgroundImageFix" result="effect1_dropShadow_462_4178"/>
<feBlend mode="normal" in="SourceGraphic" in2="effect1_dropShadow_462_4178" result="shape"/>
</filter>
<clipPath id="clip0_462_4178">
<rect x="60" y="56" width="488" height="312" rx="17" fill="white"/>
</clipPath>
</defs>
</svg>
