<svg width="68" height="28" viewBox="0 0 68 28" fill="none" xmlns="http://www.w3.org/2000/svg">
<rect width="68" height="28" rx="4" fill="#081125"/>
<g clip-path="url(#clip0_269_4122)">
<path d="M23.4131 18.4967L22.2026 17.3538C21.8097 17.8451 21.2438 18.1602 20.6149 18.1602C19.7558 18.1602 19.2213 17.5727 19.2213 16.4513C19.2213 15.0521 20.0544 13.546 21.317 13.546C21.972 13.546 22.4122 13.9467 22.7264 14.5395L24.0993 13.4926C23.3711 12.275 22.407 11.8638 21.3905 11.8638C19.0746 11.8638 17.4136 13.9839 17.4136 16.4993C17.4136 18.7529 18.7497 19.837 20.505 19.837C21.7206 19.837 22.7161 19.319 23.413 18.4967L23.4131 18.4967Z" fill="white"/>
<path d="M24.9489 11.6826L23.9795 19.7359H25.5933L26.5627 11.6826H24.9489Z" fill="white"/>
<path d="M27.2178 14.3847L26.5732 19.7357H28.1818L28.8263 14.3847H27.2178ZM28.25 11.7998C27.6579 11.7998 27.2493 12.2111 27.2493 12.7665C27.2493 13.3058 27.6422 13.7117 28.2133 13.7117C28.8054 13.7117 29.214 13.2952 29.214 12.7344C29.214 12.195 28.8211 11.7998 28.25 11.7998V11.7998Z" fill="white"/>
<path d="M31.4095 19.8373C32.4103 19.8373 33.1386 19.4262 33.6836 18.6571L32.4313 17.856C32.1221 18.2352 31.834 18.374 31.5197 18.374C31.2157 18.374 30.8124 18.1871 30.8124 17.4394C30.8124 16.5475 31.3049 15.7518 31.9859 15.7465C32.2479 15.7465 32.5466 15.8159 32.7509 16.1416L33.9822 15.207C33.5998 14.6089 32.9186 14.2832 32.0803 14.2832C30.2884 14.2832 29.188 15.7944 29.188 17.5088C29.188 19.0202 30.0421 19.8372 31.4096 19.8372L31.4095 19.8373Z" fill="white"/>
<path d="M37.8386 17.546L37.697 17.0867C38.4306 16.3764 38.9651 15.4792 39.1694 14.3844H37.5032C37.2988 15.2496 36.9163 15.9544 36.0675 16.5472H36.0413L36.623 11.6821H35.0143L34.0449 19.7355H35.6535L35.8107 18.3577C36.0152 18.2616 36.2142 18.1601 36.408 18.048H36.4184L36.4919 18.2937C36.7748 19.2016 37.1625 19.8317 37.9852 19.837C38.2367 19.837 38.3414 19.8317 38.4568 19.8209L38.8183 18.486C38.352 18.4432 38.0796 18.315 37.8386 17.546H37.8386Z" fill="white"/>
<path d="M47.3387 18.3848C46.972 18.3848 46.7361 18.0429 46.7361 17.5196C46.7361 16.7292 47.1606 15.7466 47.8731 15.7466C48.2138 15.7466 48.5071 15.8855 48.743 16.1417V16.1577C48.5753 17.589 47.9099 18.3848 47.3387 18.3848ZM48.9053 14.3848L48.8634 14.7639H48.832C48.5542 14.4648 48.1456 14.2832 47.5902 14.2832C46.2226 14.2832 45.1172 15.7412 45.1172 17.6477C45.1172 18.8815 45.6936 19.8373 46.8253 19.8373C47.4541 19.8373 47.9728 19.4422 48.3448 18.8601H48.371L48.2609 19.7358H49.8748L50.5192 14.3847L48.9053 14.3848Z" fill="white"/>
<path d="M54.3915 14.3848L54.0982 16.8414C53.9935 17.5944 53.3699 18.3741 52.9035 18.3687C52.5263 18.3687 52.4583 18.0858 52.563 17.2205L52.8983 14.3848H51.3002L50.902 17.7119C50.7134 19.2927 51.2635 19.8373 52.2434 19.8373C52.9088 19.8373 53.4327 19.5009 53.8205 18.9509H53.8414C53.6371 20.3981 53.1131 20.6543 52.39 20.6543C51.9223 20.6574 51.465 20.5139 51.0801 20.2432L50.5771 21.4821C51.1849 21.8614 51.8346 22.0001 52.4687 22.0001C53.7996 22.0001 55.1514 21.4341 55.4395 19.0096L56.0002 14.3848H54.3915Z" fill="white"/>
<path d="M13.63 10.4625L12.9303 11.3431C12.9111 11.3672 12.8895 11.3895 12.866 11.4094C12.7951 11.4696 12.7081 11.507 12.6163 11.5168C12.5858 11.5201 12.5552 11.5203 12.5247 11.5174C12.4171 11.5074 12.3163 11.4596 12.2394 11.3823C12.1626 11.3049 12.1144 11.2028 12.1032 11.0933C12.0967 11.0311 12.1024 10.9683 12.1198 10.9084C12.1285 10.8785 12.14 10.8495 12.1542 10.8219C12.1685 10.7944 12.1854 10.7683 12.2046 10.744L12.9043 9.86341C12.9235 9.83917 12.945 9.81695 12.9685 9.79706C13.0156 9.75705 13.07 9.72692 13.1286 9.70842C13.1578 9.69917 13.1879 9.69289 13.2183 9.68968C13.2487 9.68635 13.2793 9.68614 13.3098 9.68905C13.3709 9.69478 13.4302 9.71269 13.4845 9.74176C13.5116 9.75632 13.5372 9.77351 13.561 9.79311C13.6086 9.83243 13.6481 9.88092 13.6774 9.93581C13.7067 9.99073 13.7251 10.051 13.7314 10.1132C13.7379 10.1754 13.7322 10.2382 13.7148 10.2981C13.6974 10.3581 13.6686 10.4139 13.63 10.4625H13.63Z" fill="white"/>
<path d="M16.5245 6.77538L15.8249 7.65597C15.8057 7.6802 15.7841 7.70242 15.7606 7.72231C15.7135 7.76235 15.6591 7.79248 15.6005 7.81095C15.5713 7.8202 15.5413 7.82648 15.5108 7.82969C15.4499 7.83623 15.3882 7.83047 15.3294 7.81272C15.3001 7.8039 15.2717 7.79215 15.2446 7.77761C15.2176 7.76308 15.192 7.74588 15.1682 7.72626C15.1444 7.70668 15.1226 7.68473 15.1031 7.66075C15.0638 7.61275 15.0343 7.55731 15.0161 7.49763C15.007 7.46784 15.0009 7.4372 14.9977 7.40617C14.9945 7.3752 14.9943 7.34397 14.9971 7.31295C14.9999 7.28189 15.0057 7.25118 15.0144 7.22128C15.0318 7.16133 15.0606 7.10547 15.0992 7.05692L15.7988 6.17631C15.8181 6.1521 15.8396 6.12988 15.8631 6.10996C15.8866 6.09008 15.912 6.07256 15.9388 6.05765C15.9657 6.04278 15.994 6.03063 16.0232 6.0214C16.1114 5.9935 16.2057 5.99287 16.2942 6.01959C16.3828 6.04629 16.4616 6.09918 16.5206 6.17156C16.5797 6.24391 16.6164 6.33251 16.626 6.42614C16.6292 6.45715 16.6294 6.48841 16.6266 6.51947C16.6209 6.58169 16.6034 6.64217 16.5749 6.69749C16.5606 6.72506 16.5438 6.75115 16.5245 6.77538Z" fill="white"/>
<path d="M12.7608 6.75107L13.6247 7.46417C13.6485 7.48381 13.6703 7.50575 13.6899 7.52969C13.7291 7.57778 13.7586 7.63324 13.7768 7.69292C13.8042 7.78278 13.8048 7.87893 13.7786 7.96915C13.7611 8.02906 13.7323 8.08489 13.6937 8.13352C13.6356 8.20667 13.5575 8.26061 13.4693 8.28852C13.4401 8.29775 13.4101 8.30406 13.3797 8.30737C13.3493 8.31062 13.3186 8.31079 13.2881 8.30789C13.2577 8.30511 13.2275 8.29921 13.1982 8.29029C13.1394 8.27255 13.0847 8.24317 13.037 8.20383L12.1731 7.49074C12.1255 7.45147 12.0859 7.40297 12.0566 7.34804C12.0274 7.29312 12.009 7.23286 12.0026 7.1707C11.9961 7.10854 12.0018 7.0457 12.0192 6.98577C12.0279 6.95585 12.0395 6.92689 12.0538 6.89931C12.0822 6.84397 12.1212 6.79493 12.1683 6.755C12.2393 6.69478 12.3262 6.65742 12.4181 6.64764C12.5099 6.63778 12.6026 6.6559 12.6843 6.69972C12.7114 6.71422 12.737 6.73142 12.7608 6.75107Z" fill="white"/>
<path d="M14.756 9.0946C15.0052 8.84064 15.3658 8.74043 15.7206 8.82678L18.1525 9.41854C18.3493 9.46679 18.53 9.56763 18.6759 9.71066C18.8218 9.8537 18.9277 10.0338 18.9826 10.2324C19.0871 10.6084 18.9929 10.9923 18.7309 11.2591C18.6598 11.3317 18.5744 11.3882 18.4804 11.4248L17.4212 11.8369L17.0455 12.8816C17.0097 12.981 16.9531 13.0713 16.8796 13.1462C16.6178 13.4131 16.2412 13.5091 15.8723 13.4027C15.6774 13.3467 15.5007 13.2388 15.3604 13.0901C15.2201 12.9413 15.1211 12.7572 15.0738 12.5566L14.4932 10.0778C14.4085 9.71614 14.5068 9.34865 14.756 9.0946ZM15.2618 9.61022C15.1931 9.68042 15.1608 9.78793 15.1891 9.90844L15.7697 12.3871C15.8374 12.6763 16.1897 12.8183 16.3739 12.6307L16.8615 11.2743L18.2252 10.7437C18.4092 10.556 18.27 10.1969 17.9862 10.1279L15.5543 9.53605C15.4361 9.50718 15.3306 9.54 15.2618 9.61022" fill="white"/>
<path d="M43.0263 11.9653H40.3646L39.4321 19.7356H41.1192L41.3787 17.5651L41.6066 15.6556H41.6065L41.6415 15.3628L41.6422 15.3578L41.8632 13.514H42.5967C43.0211 13.514 43.4338 13.7299 43.366 14.3064C43.3311 14.6333 43.3235 14.7157 43.3039 14.8682C43.2842 15.0208 43.1301 16.0515 43.1675 16.2264C43.2048 16.4012 43.7163 17.0277 43.7163 17.0277C44.3448 16.5665 45.1798 15.3413 45.1798 14.1175C45.1798 12.8678 44.5511 11.9653 43.0263 11.9653Z" fill="white"/>
<path d="M43.0678 15.4327L43.0715 15.4486L43.0692 15.4647L42.9566 16.3039L43.412 16.98L43.4214 16.9939L43.4251 17.0103C43.4368 17.0617 43.4343 17.1154 43.4179 17.1654C43.4015 17.2154 43.3718 17.2599 43.3322 17.2938C43.2926 17.3277 43.2446 17.3498 43.1934 17.3577C43.1423 17.3655 43.09 17.3588 43.0423 17.3383L41.7945 16.8011C41.7536 16.7835 41.7174 16.7562 41.6888 16.7216C41.6603 16.687 41.6402 16.6459 41.6302 16.6019C41.6202 16.5578 41.6206 16.5119 41.6314 16.468C41.6422 16.4241 41.663 16.3835 41.6922 16.3494L42.5827 15.3089C42.6167 15.2692 42.6608 15.2398 42.7102 15.224C42.7596 15.2082 42.8123 15.2066 42.8625 15.2194C42.9126 15.2322 42.9584 15.2589 42.9946 15.2965C43.0309 15.3341 43.0562 15.3812 43.0679 15.4326L43.0678 15.4327Z" fill="white"/>
</g>
<defs>
<clipPath id="clip0_269_4122">
<rect width="44" height="16" fill="white" transform="translate(12 6)"/>
</clipPath>
</defs>
</svg>
