<svg width="160" height="56" viewBox="0 0 160 56" fill="none" xmlns="http://www.w3.org/2000/svg">
<g clip-path="url(#clip0_269_3462)">
<path d="M41.5029 43.7387L37.101 39.7385C35.6724 41.4582 33.6144 42.561 31.3278 42.561C28.2035 42.561 26.2599 40.5048 26.2599 36.5798C26.2599 31.6824 29.2894 26.4114 33.8809 26.4114C36.2627 26.4114 37.8633 27.8136 39.006 29.8884L43.9983 26.2244C41.3501 21.9629 37.8445 20.5234 34.148 20.5234C25.7265 20.5234 19.6865 27.944 19.6865 36.7478C19.6865 44.6354 24.5453 48.4299 30.9282 48.4299C35.3483 48.4299 38.9684 46.6169 41.5025 43.7385L41.5029 43.7387Z" fill="white"/>
<path d="M47.0864 19.8884L43.5612 48.075H49.4296L52.9548 19.8884H47.0864Z" fill="white"/>
<path d="M55.3371 29.3461L52.9933 48.0748H58.8427L61.1861 29.3461H55.3371ZM59.0906 20.2991C56.9374 20.2991 55.4516 21.7385 55.4516 23.6823C55.4516 25.57 56.8803 26.9906 58.9572 26.9906C61.1103 26.9906 62.5961 25.533 62.5961 23.5701C62.5961 21.6824 61.1672 20.2992 59.0906 20.2992V20.2991Z" fill="white"/>
<path d="M70.5802 48.43C74.2195 48.43 76.8681 46.9911 78.8498 44.2993L74.2958 41.4954C73.1717 42.8228 72.1241 43.3084 70.9809 43.3084C69.8757 43.3084 68.4089 42.6543 68.4089 40.0374C68.4089 36.9159 70.1998 34.131 72.6763 34.1123C73.6291 34.1123 74.715 34.3551 75.4583 35.495L79.9357 32.224C78.5449 30.1308 76.068 28.9907 73.0196 28.9907C66.5034 28.9907 62.5021 34.28 62.5021 40.2802C62.5021 45.5702 65.6078 48.4296 70.5806 48.4296L70.5802 48.43Z" fill="white"/>
<path d="M93.9592 40.4114L93.4444 38.804C96.1119 36.318 98.0555 33.1775 98.7987 29.3458H92.7397C91.9964 32.374 90.6054 34.841 87.5187 36.9159H87.4236L89.5387 19.8879H83.6889L80.1641 48.0747H86.0135L86.585 43.2525C87.3286 42.916 88.0523 42.5609 88.7572 42.1686H88.7951L89.0623 43.0283C90.0909 46.206 91.5008 48.4113 94.4924 48.4299C95.407 48.4299 95.7876 48.4113 96.2071 48.3737L97.5219 43.7013C95.8262 43.5518 94.8355 43.1031 93.9591 40.4114H93.9592Z" fill="white"/>
<path d="M128.504 43.3463C127.171 43.3463 126.313 42.1498 126.313 40.3181C126.313 37.5517 127.857 34.1127 130.448 34.1127C131.686 34.1127 132.753 34.5988 133.611 35.4953V35.5515C133.001 40.5609 130.581 43.3463 128.504 43.3463ZM134.201 29.3462L134.049 30.6732H133.934C132.924 29.6262 131.438 28.9907 129.419 28.9907C124.446 28.9907 120.426 34.0937 120.426 40.7665C120.426 45.0849 122.522 48.4299 126.637 48.4299C128.924 48.4299 130.81 47.0473 132.163 45.0098H132.258L131.858 48.0748H137.726L140.069 29.3461L134.201 29.3462Z" fill="white"/>
<path d="M154.15 29.3462L153.084 37.9444C152.703 40.5799 150.435 43.3087 148.739 43.2901C147.368 43.2901 147.12 42.2999 147.501 39.2714L148.72 29.3462H142.909L141.461 40.9911C140.775 46.5238 142.776 48.4302 146.339 48.4302C148.758 48.4302 150.664 47.2527 152.074 45.3277H152.15C151.407 50.3927 149.501 51.2896 146.872 51.2896C145.171 51.3004 143.508 50.798 142.108 49.8506L140.28 54.1869C142.49 55.5143 144.852 55.9999 147.158 55.9999C151.998 55.9999 156.913 54.0188 157.961 45.533L160 29.3462H154.15Z" fill="white"/>
<path d="M5.92628 15.6181L3.38208 18.7002C3.31201 18.7849 3.23373 18.8626 3.14834 18.9324C2.89024 19.1432 2.57412 19.2741 2.2401 19.3083C2.12946 19.32 2.01791 19.3207 1.90713 19.3105C1.51595 19.2754 1.14932 19.1082 0.869775 18.8375C0.590226 18.5668 0.415074 18.2093 0.374194 17.826C0.350853 17.6085 0.371431 17.3886 0.434752 17.1789C0.466196 17.0742 0.508147 16.9728 0.559987 16.8763C0.611835 16.7797 0.673201 16.6884 0.743205 16.6036L3.28735 13.5214C3.35721 13.4366 3.43551 13.3588 3.52108 13.2892C3.69232 13.1492 3.8901 13.0437 4.10304 12.979C4.20933 12.9466 4.31862 12.9246 4.42932 12.9134C4.53983 12.9017 4.65125 12.901 4.76191 12.9112C4.98402 12.9312 5.19995 12.9939 5.39741 13.0957C5.49577 13.1466 5.58886 13.2068 5.67536 13.2754C5.8485 13.413 5.99232 13.5827 6.09862 13.7749C6.20528 13.967 6.2721 14.1781 6.29523 14.3957C6.31864 14.6133 6.2981 14.8332 6.23478 15.0429C6.17146 15.2527 6.06661 15.4481 5.92622 15.6181H5.92628Z" fill="white"/>
<path d="M16.4527 2.71406L13.9085 5.79612C13.8386 5.88094 13.7603 5.95872 13.6747 6.02833C13.5034 6.16848 13.3055 6.27393 13.0924 6.33857C12.9862 6.37095 12.8771 6.39293 12.7665 6.40416C12.5448 6.42706 12.3206 6.40688 12.1068 6.34475C12.0001 6.31391 11.8968 6.27275 11.7984 6.2219C11.7 6.17103 11.6069 6.11083 11.5204 6.04215C11.434 5.97361 11.3547 5.8968 11.2837 5.81285C11.141 5.64487 11.0335 5.45084 10.9675 5.24193C10.9345 5.13767 10.9121 5.03045 10.9006 4.92185C10.8887 4.81344 10.888 4.70413 10.8984 4.59557C10.9085 4.48685 10.9295 4.37938 10.9612 4.27472C11.0244 4.0649 11.1292 3.8694 11.2696 3.69945L13.8137 0.617323C13.8836 0.532602 13.9619 0.454826 14.0473 0.385117C14.1328 0.315534 14.2251 0.25422 14.3226 0.202029C14.4205 0.14997 14.5233 0.107467 14.6296 0.0751304C14.9503 -0.0225198 15.2932 -0.0247169 15.6152 0.068817C15.9372 0.162255 16.2237 0.347376 16.4383 0.600719C16.6532 0.853918 16.7866 1.16404 16.8215 1.49173C16.8334 1.60026 16.8341 1.7097 16.8237 1.81838C16.8032 2.03614 16.7393 2.24784 16.6357 2.44145C16.5839 2.53796 16.5226 2.62927 16.4527 2.71406V2.71406Z" fill="white"/>
<path d="M2.76637 2.62948L5.90811 5.12534C5.99451 5.19407 6.07391 5.27087 6.14519 5.35465C6.28756 5.52297 6.39488 5.71707 6.46105 5.92594C6.56077 6.24048 6.56301 6.57698 6.46748 6.89277C6.4039 7.10243 6.29911 7.29786 6.15903 7.46805C5.94767 7.72407 5.66367 7.91286 5.34294 8.01055C5.23675 8.04285 5.1276 8.06495 5.01705 8.07653C4.90639 8.08789 4.79486 8.0885 4.68408 8.07836C4.57323 8.06862 4.46367 8.04797 4.35703 8.01674C4.14328 7.95466 3.94412 7.85183 3.77095 7.71414L0.629526 5.21834C0.45614 5.08087 0.312164 4.91113 0.205878 4.71889C0.0994186 4.52666 0.0326087 4.31574 0.00926543 4.09818C-0.0140779 3.88061 0.00650289 3.66067 0.0698319 3.45091C0.101408 3.34622 0.143488 3.24486 0.195453 3.14831C0.29898 2.95464 0.440556 2.78299 0.612022 2.64324C0.870134 2.43248 1.18625 2.30169 1.52026 2.26747C1.85423 2.23295 2.19114 2.29638 2.48835 2.44974C2.58684 2.50051 2.67996 2.56072 2.76637 2.62948V2.62948Z" fill="white"/>
<path d="M10.0224 10.8306C10.9287 9.94174 12.2398 9.59103 13.5301 9.89325L22.3734 11.9644C23.0891 12.1333 23.7461 12.4862 24.2767 12.9868C24.8073 13.4875 25.1923 14.1178 25.3921 14.8128C25.7718 16.129 25.4293 17.4724 24.4768 18.4065C24.2182 18.6606 23.9076 18.8581 23.5656 18.9862L19.7141 20.4288L18.3479 24.085C18.2178 24.433 18.012 24.749 17.7448 25.0111C16.7927 25.9455 15.4233 26.2813 14.0817 25.909C13.3731 25.713 12.7307 25.3352 12.2204 24.8147C11.71 24.2942 11.3503 23.6497 11.1782 22.9475L9.06688 14.2718C8.75881 13.006 9.1163 11.7198 10.0224 10.8306ZM11.8619 12.6353C11.6119 12.881 11.4944 13.2573 11.5973 13.6791L13.7085 22.3545C13.9549 23.3666 15.2359 23.8634 15.9056 23.2068L17.679 18.4597L22.6376 16.6025C23.3069 15.9456 22.8008 14.6885 21.7688 14.4472L12.9256 12.3757C12.4956 12.2747 12.1121 12.3895 11.8616 12.6353" fill="white"/>
<path d="M112.822 20.8789H103.143L99.7525 48.0748H105.887L106.831 40.4782L107.66 33.7948H107.659L107.787 32.7701L107.789 32.7526L108.593 26.2993H111.26C112.803 26.2993 114.304 27.0549 114.057 29.0727C113.931 30.217 113.903 30.5053 113.831 31.0391C113.76 31.5729 113.2 35.1807 113.336 35.7926C113.471 36.4045 115.331 38.5973 115.331 38.5973C117.617 36.983 120.653 32.6949 120.653 28.4115C120.653 24.0376 118.367 20.8789 112.822 20.8789Z" fill="white"/>
<path d="M112.973 33.0147L112.986 33.0704L112.978 33.1267L112.568 36.064L114.225 38.4301L114.259 38.4788L114.272 38.5364C114.315 38.7162 114.305 38.9041 114.246 39.0792C114.186 39.2542 114.079 39.4097 113.934 39.5285C113.79 39.6473 113.616 39.7247 113.43 39.7521C113.244 39.7796 113.053 39.7561 112.88 39.6842L108.343 37.804C108.194 37.7424 108.062 37.6471 107.959 37.5259C107.855 37.4047 107.782 37.261 107.745 37.1068C107.709 36.9525 107.71 36.7919 107.75 36.6383C107.789 36.4847 107.865 36.3424 107.971 36.2231L111.209 32.5816C111.333 32.4424 111.493 32.3395 111.673 32.2842C111.852 32.2289 112.044 32.2233 112.226 32.2681C112.409 32.3129 112.575 32.4063 112.707 32.538C112.839 32.6697 112.931 32.8345 112.973 33.0144L112.973 33.0147Z" fill="white"/>
</g>
<defs>
<clipPath id="clip0_269_3462">
<rect width="160" height="56" fill="white"/>
</clipPath>
</defs>
</svg>
