<svg width="160" height="56" viewBox="0 0 160 56" fill="none" xmlns="http://www.w3.org/2000/svg">
<g clip-path="url(#clip0_948_1184)">
<path d="M41.503 43.7387L37.1011 39.7385C35.6724 41.4582 33.6145 42.561 31.3279 42.561C28.2036 42.561 26.26 40.5048 26.26 36.5798C26.26 31.6824 29.2895 26.4114 33.881 26.4114C36.2627 26.4114 37.8633 27.8136 39.0061 29.8884L43.9984 26.2244C41.3502 21.9629 37.8446 20.5234 34.148 20.5234C25.7266 20.5234 19.6865 27.944 19.6865 36.7478C19.6865 44.6354 24.5453 48.4299 30.9282 48.4299C35.3484 48.4299 38.9684 46.6169 41.5025 43.7385L41.503 43.7387Z" fill="#2F304A"/>
<path d="M47.0865 19.8882L43.5613 48.0747H49.4297L52.9549 19.8882H47.0865Z" fill="#2F304A"/>
<path d="M55.337 29.3464L52.9932 48.075H58.8425L61.186 29.3464H55.337ZM59.0904 20.2993C56.9373 20.2993 55.4515 21.7388 55.4515 23.6826C55.4515 25.5703 56.8802 26.9908 58.957 26.9908C61.1102 26.9908 62.596 25.5332 62.596 23.5703C62.596 21.6826 61.1671 20.2994 59.0904 20.2994V20.2993Z" fill="#2F304A"/>
<path d="M70.5801 48.43C74.2194 48.43 76.868 46.9911 78.8497 44.2993L74.2957 41.4954C73.1716 42.8228 72.1239 43.3084 70.9808 43.3084C69.8756 43.3084 68.4088 42.6543 68.4088 40.0374C68.4088 36.9159 70.1996 34.131 72.6762 34.1123C73.629 34.1123 74.7149 34.3551 75.4582 35.495L79.9355 32.224C78.5448 30.1308 76.0679 28.9907 73.0194 28.9907C66.5033 28.9907 62.502 34.28 62.502 40.2802C62.502 45.5702 65.6077 48.4296 70.5804 48.4296L70.5801 48.43Z" fill="#2F304A"/>
<path d="M93.9592 40.4116L93.4444 38.8042C96.1119 36.3182 98.0555 33.1778 98.7987 29.3461H92.7397C91.9964 32.3742 90.6054 34.8413 87.5187 36.9161H87.4236L89.5387 19.8882H83.6889L80.1641 48.075H86.0135L86.585 43.2528C87.3286 42.9163 88.0523 42.5611 88.7572 42.1689H88.7951L89.0623 43.0286C90.0909 46.2062 91.5008 48.4115 94.4924 48.4301C95.407 48.4301 95.7876 48.4115 96.2071 48.374L97.5219 43.7016C95.8262 43.5521 94.8355 43.1033 93.9591 40.4116H93.9592Z" fill="#2F304A"/>
<path d="M128.504 43.3463C127.17 43.3463 126.313 42.1498 126.313 40.3181C126.313 37.5517 127.856 34.1127 130.447 34.1127C131.686 34.1127 132.753 34.5988 133.611 35.4953V35.5515C133.001 40.5609 130.581 43.3463 128.504 43.3463ZM134.201 29.3462L134.048 30.6732H133.934C132.924 29.6262 131.438 28.9907 129.419 28.9907C124.446 28.9907 120.426 34.0937 120.426 40.7665C120.426 45.0849 122.522 48.4299 126.637 48.4299C128.923 48.4299 130.81 47.0473 132.163 45.0098H132.258L131.857 48.0748H137.726L140.069 29.3461L134.201 29.3462Z" fill="#2F304A"/>
<path d="M154.15 29.3462L153.084 37.9444C152.703 40.5799 150.435 43.3087 148.739 43.2901C147.368 43.2901 147.12 42.2999 147.501 39.2714L148.72 29.3462H142.909L141.461 40.9911C140.775 46.5238 142.776 48.4302 146.339 48.4302C148.759 48.4302 150.664 47.2527 152.074 45.3277H152.15C151.407 50.3927 149.501 51.2896 146.872 51.2896C145.171 51.3004 143.508 50.798 142.109 49.8506L140.28 54.1869C142.49 55.5143 144.852 55.9999 147.158 55.9999C151.998 55.9999 156.913 54.0188 157.961 45.533L160 29.3462H154.15Z" fill="#2F304A"/>
<path d="M5.9264 15.6179L3.3822 18.7C3.31213 18.7846 3.23385 18.8624 3.14846 18.9322C2.89037 19.143 2.57424 19.2738 2.24022 19.3081C2.12959 19.3198 2.01804 19.3205 1.90725 19.3103C1.51608 19.2751 1.14945 19.108 0.869897 18.8372C0.590348 18.5665 0.415196 18.209 0.374316 17.8258C0.350975 17.6083 0.371553 17.3884 0.434874 17.1786C0.466319 17.074 0.508269 16.9726 0.560109 16.876C0.611957 16.7795 0.673323 16.6882 0.743327 16.6034L3.28747 13.5212C3.35734 13.4364 3.43563 13.3586 3.52121 13.289C3.69244 13.1489 3.89022 13.0435 4.10317 12.9787C4.20945 12.9464 4.31874 12.9244 4.42945 12.9132C4.53995 12.9015 4.65137 12.9007 4.76203 12.9109C4.98414 12.931 5.20007 12.9937 5.39754 13.0954C5.49589 13.1464 5.58898 13.2066 5.67548 13.2752C5.84862 13.4128 5.99244 13.5825 6.09875 13.7746C6.2054 13.9668 6.27222 14.1778 6.29535 14.3955C6.31876 14.613 6.29822 14.833 6.2349 15.0427C6.17158 15.2525 6.06673 15.4479 5.92634 15.6179H5.9264Z" fill="#44BC82"/>
<path d="M16.4527 2.71381L13.9085 5.79588C13.8386 5.8807 13.7603 5.95848 13.6747 6.02808C13.5034 6.16824 13.3055 6.27368 13.0924 6.33832C12.9862 6.37071 12.8771 6.39268 12.7665 6.40392C12.5448 6.42682 12.3206 6.40663 12.1068 6.34451C12.0001 6.31366 11.8968 6.27251 11.7984 6.22165C11.7 6.17079 11.6069 6.11059 11.5204 6.04191C11.434 5.97337 11.3547 5.89656 11.2837 5.81261C11.141 5.64462 11.0335 5.45059 10.9675 5.24169C10.9345 5.13742 10.9121 5.0302 10.9006 4.9216C10.8887 4.81319 10.888 4.70388 10.8984 4.59533C10.9085 4.48661 10.9295 4.37914 10.9612 4.27448C11.0244 4.06466 11.1292 3.86916 11.2696 3.69921L13.8137 0.617079C13.8836 0.532358 13.9619 0.454582 14.0473 0.384873C14.1328 0.31529 14.2251 0.253976 14.3226 0.201785C14.4205 0.149726 14.5233 0.107222 14.6296 0.0748862C14.9503 -0.022764 15.2932 -0.024961 15.6152 0.0685728C15.9372 0.162011 16.2237 0.347132 16.4383 0.600475C16.6532 0.853674 16.7866 1.1638 16.8215 1.49148C16.8334 1.60002 16.8341 1.70945 16.8237 1.81814C16.8032 2.0359 16.7393 2.24759 16.6357 2.4412C16.5839 2.53772 16.5226 2.62902 16.4527 2.71381Z" fill="#44BC82"/>
<path d="M2.76643 2.62948L5.90817 5.12534C5.99457 5.19407 6.07397 5.27087 6.14525 5.35465C6.28762 5.52297 6.39494 5.71707 6.46111 5.92594C6.56083 6.24048 6.56307 6.57698 6.46754 6.89277C6.40396 7.10243 6.29918 7.29786 6.15909 7.46805C5.94773 7.72407 5.66373 7.91286 5.34301 8.01055C5.23681 8.04285 5.12767 8.06495 5.01711 8.07653C4.90645 8.08789 4.79492 8.0885 4.68414 8.07836C4.57329 8.06862 4.46373 8.04797 4.35709 8.01674C4.14334 7.95466 3.94418 7.85183 3.77101 7.71414L0.629588 5.21834C0.456201 5.08087 0.312225 4.91113 0.205939 4.71889C0.0994797 4.52666 0.0326698 4.31574 0.00932647 4.09818C-0.0140168 3.88061 0.00656392 3.66067 0.0698929 3.45091C0.10147 3.34622 0.143549 3.24486 0.195514 3.14831C0.299041 2.95464 0.440617 2.78299 0.612083 2.64324C0.870195 2.43248 1.18631 2.30169 1.52032 2.26747C1.85429 2.23295 2.1912 2.29638 2.48841 2.44974C2.5869 2.50051 2.68002 2.56072 2.76643 2.62948Z" fill="#44BC82"/>
<path d="M10.0224 10.8304C10.9288 9.94149 12.2399 9.59078 13.5302 9.89301L22.3735 11.9642C23.0892 12.133 23.7462 12.486 24.2767 12.9866C24.8073 13.4872 25.1924 14.1175 25.3922 14.8126C25.7719 16.1287 25.4294 17.4722 24.4769 18.4062C24.2182 18.6603 23.9077 18.8579 23.5657 18.9859L19.7141 20.4285L18.348 24.0848C18.2178 24.4327 18.012 24.7487 17.7449 25.0108C16.7927 25.9452 15.4233 26.281 14.0817 25.9088C13.3732 25.7127 12.7307 25.335 12.2204 24.8145C11.7101 24.294 11.3504 23.6495 11.1782 22.9473L9.06694 14.2716C8.75887 13.0058 9.11636 11.7195 10.0224 10.8304ZM11.862 12.635C11.6119 12.8807 11.4945 13.257 11.5974 13.6788L13.7086 22.3543C13.955 23.3663 15.236 23.8632 15.9057 23.2066L17.6791 18.4594L22.6377 16.6023C23.307 15.9453 22.8008 14.6883 21.7689 14.4469L12.9257 12.3754C12.4957 12.2744 12.1121 12.3893 11.8617 12.635" fill="#2462B8"/>
<path d="M112.822 20.8789H103.143L99.7524 48.0748H105.887L106.831 40.4782L107.66 33.7948H107.659L107.787 32.7701L107.789 32.7526L108.593 26.2993H111.26C112.803 26.2993 114.304 27.0549 114.057 29.0727C113.93 30.217 113.903 30.5053 113.831 31.0391C113.76 31.5729 113.2 35.1807 113.335 35.7926C113.471 36.4045 115.331 38.5973 115.331 38.5973C117.617 36.983 120.653 32.6949 120.653 28.4115C120.653 24.0376 118.367 20.8789 112.822 20.8789Z" fill="#2F304A"/>
<path d="M112.973 33.0147L112.986 33.0704L112.978 33.1267L112.568 36.064L114.225 38.4301L114.259 38.4788L114.272 38.5364C114.315 38.7162 114.306 38.9041 114.246 39.0792C114.186 39.2542 114.079 39.4097 113.935 39.5285C113.791 39.6473 113.616 39.7247 113.43 39.7521C113.244 39.7796 113.054 39.7561 112.88 39.6842L108.343 37.804C108.194 37.7424 108.062 37.6471 107.959 37.5259C107.855 37.4047 107.782 37.261 107.745 37.1068C107.709 36.9525 107.711 36.7919 107.75 36.6383C107.789 36.4847 107.865 36.3424 107.971 36.2231L111.209 32.5816C111.333 32.4424 111.493 32.3395 111.673 32.2842C111.852 32.2289 112.044 32.2233 112.226 32.2681C112.409 32.3129 112.575 32.4063 112.707 32.538C112.839 32.6697 112.931 32.8345 112.973 33.0144L112.973 33.0147Z" fill="#2462B8"/>
</g>
<defs>
<clipPath id="clip0_948_1184">
<rect width="160" height="56" fill="white"/>
</clipPath>
</defs>
</svg>
