<svg width="14" height="11" viewBox="0 0 14 11" fill="none" xmlns="http://www.w3.org/2000/svg">
<path d="M11.375 11C12.8242 11 14 9.82422 14 8.375V3.125C14 1.67578 12.8242 0.5 11.375 0.5H9.07812C8.88672 0.5 8.75 0.664062 8.75 0.828125V1.48438C8.75 1.67578 8.88672 1.8125 9.07812 1.8125H11.375C12.0859 1.8125 12.6875 2.41406 12.6875 3.125V8.375C12.6875 9.11328 12.0859 9.6875 11.375 9.6875H9.07812C8.88672 9.6875 8.75 9.85156 8.75 10.0156V10.6719C8.75 10.8633 8.88672 11 9.07812 11H11.375ZM4.56641 1.04688L4.01953 1.59375C3.88281 1.70312 3.88281 1.92188 4.01953 2.05859L7.10938 5.03906H0.328125C0.136719 5.03906 0 5.20312 0 5.36719V6.13281C0 6.32422 0.136719 6.46094 0.328125 6.46094H7.10938L4.01953 9.46875C3.88281 9.60547 3.88281 9.82422 4.01953 9.93359L4.56641 10.4805C4.67578 10.6172 4.89453 10.6172 5.03125 10.4805L9.51562 5.99609C9.65234 5.85938 9.65234 5.66797 9.51562 5.53125L5.03125 1.04688C4.89453 0.910156 4.67578 0.910156 4.56641 1.04688Z" fill="#F8FAFC"/>
</svg>
